<?xml version="1.0" encoding="UTF-8" standalone="no"?>
<!-- Created with Inkscape (http://www.inkscape.org/) -->

<svg
   width="37.386002"
   height="37.386002"
   viewBox="0 0 37.386002 37.386002"
   version="1.1"
   id="svg5"
   inkscape:version="1.3 (0e150ed6c4, 2023-07-21)"
   sodipodi:docname="favicon.svg"
   inkscape:export-filename="favicon128x128.png"
   inkscape:export-xdpi="328.67917"
   inkscape:export-ydpi="328.67917"
   xmlns:inkscape="http://www.inkscape.org/namespaces/inkscape"
   xmlns:sodipodi="http://sodipodi.sourceforge.net/DTD/sodipodi-0.dtd"
   xmlns="http://www.w3.org/2000/svg"
   xmlns:svg="http://www.w3.org/2000/svg">
  <sodipodi:namedview
     id="namedview7"
     pagecolor="#505050"
     bordercolor="#eeeeee"
     borderopacity="1"
     inkscape:pageshadow="0"
     inkscape:pageopacity="0"
     inkscape:pagecheckerboard="0"
     inkscape:document-units="px"
     showgrid="false"
     units="px"
     showguides="false"
     inkscape:zoom="11.313709"
     inkscape:cx="16.617009"
     inkscape:cy="19.047688"
     inkscape:window-width="1888"
     inkscape:window-height="1060"
     inkscape:window-x="32"
     inkscape:window-y="0"
     inkscape:window-maximized="1"
     inkscape:current-layer="layer1"
     inkscape:showpageshadow="2"
     inkscape:deskcolor="#d1d1d1" />
  <defs
     id="defs2">
    <inkscape:path-effect
       effect="fillet_chamfer"
       id="path-effect35261"
       is_visible="true"
       lpeversion="1"
       satellites_param="F,0,0,1,0,0,0,1 @ F,0,0,1,0,0,0,1 @ F,0,0,1,0,0,0,1 @ F,0,0,1,0,0,0,1 @ F,0,0,1,0,0,0,1 @ F,0,0,1,0,0,0,1 @ F,0,0,1,0,0,0,1 @ F,0,0,1,0,0,0,1 @ F,0,0,1,0,0,0,1 @ F,0,0,1,0,0,0,1 @ F,0,0,1,0,0,0,1 @ F,0,0,1,0,0,0,1 @ F,0,0,1,0,0,0,1 @ F,0,0,1,0,0,0,1 @ F,0,0,1,0,0,0,1 @ F,0,0,1,0,0,0,1 @ F,0,0,1,0,0,0,1 @ F,0,0,1,0,0,0,1 @ F,0,0,1,0,0,0,1 @ F,0,0,1,0,0,0,1 @ F,0,0,1,0,0,0,1 @ F,0,0,1,0,0,0,1 @ F,0,0,1,0,0,0,1 @ F,0,0,1,0,0,0,1 @ F,0,0,1,0,0,0,1 @ F,0,0,1,0,0,0,1 @ F,0,0,1,0,0,0,1 @ F,0,0,1,0,0,0,1"
       unit="px"
       method="auto"
       mode="F"
       radius="1"
       chamfer_steps="1"
       flexible="false"
       use_knot_distance="true"
       apply_no_radius="true"
       apply_with_radius="true"
       only_selected="false"
       hide_knots="false"
       nodesatellites_param="F,0,0,1,0,0,0,1 @ F,0,0,1,0,0,0,1 @ F,0,0,1,0,0,0,1 @ F,0,0,1,0,0,0,1 @ F,0,0,1,0,0,0,1 @ F,0,0,1,0,0,0,1 @ F,0,0,1,0,0,0,1 @ F,0,0,1,0,0,0,1 @ F,0,0,1,0,0,0,1 @ F,0,0,1,0,0,0,1 @ F,0,0,1,0,0,0,1 @ F,0,0,1,0,0,0,1 @ F,0,0,1,0,0,0,1 @ F,0,0,1,0,0,0,1 @ F,0,0,1,0,0,0,1 @ F,0,0,1,0,0,0,1 @ F,0,0,1,0,0,0,1 @ F,0,0,1,0,0,0,1 @ F,0,0,1,0,0,0,1 @ F,0,0,1,0,0,0,1 @ F,0,0,1,0,0,0,1 @ F,0,0,1,0,0,0,1 @ F,0,0,1,0,0,0,1 @ F,0,0,1,0,0,0,1 @ F,0,0,1,0,0,0,1 @ F,0,0,1,0,0,0,1 @ F,0,0,1,0,0,0,1 @ F,0,0,1,0,0,0,1" />
    <style
       id="style967">.a{fill:none;stroke:#fff;stroke-linecap:round;stroke-linejoin:round;}</style>
  </defs>
  <g
     inkscape:label="Layer 1"
     inkscape:groupmode="layer"
     id="layer1"
     transform="translate(-5.3069999,-5.307)">
    <text
       xml:space="preserve"
       style="font-style:normal;font-weight:normal;font-size:40px;line-height:1.25;font-family:sans-serif;fill:#000000;fill-opacity:1;stroke:none"
       x="22.98719"
       y="13.623002"
       id="text6936"><tspan
         sodipodi:role="line"
         id="tspan6934"
         x="22.98719"
         y="13.623002" /></text>
    <path
       class="a"
       d="M 40.5,5.5 H 7.4999999 a 2,2 0 0 0 -2,2 v 33 a 2,2 0 0 0 2,2 H 40.5 a 2,2 0 0 0 2,-2 v -33 a 2,2 0 0 0 -2,-2 z"
       id="path971"
       style="fill:#478061;fill-opacity:1;stroke:#478061;stroke-width:0.386;stroke-miterlimit:4;stroke-dasharray:none;stroke-opacity:1" />
    <path
       id="path39667"
       style="opacity:0.273315;fill:#000000;stroke:#000000;stroke-width:0.386016px;stroke-linecap:round;stroke-linejoin:round"
       d="m 24.205078,9.390625 c -2.3698,0 -4.303381,0.683581 -5.800781,2.050781 -1.4974,1.3672 -2.246094,3.138 -2.246094,5.3125 0,2.089163 0.687318,3.790932 2.060547,5.105469 0.04323,0.04393 0.08616,0.08775 0.130859,0.130859 0.05736,0.05873 0.115809,0.116574 0.175782,0.173828 0.04157,0.04213 0.08207,0.08559 0.125,0.126954 0.04814,0.04922 0.09651,0.0983 0.146484,0.146484 0.05513,0.05645 0.110428,0.112881 0.167969,0.167969 0.04256,0.04324 0.08493,0.08647 0.128906,0.128906 0.05574,0.05712 0.11171,0.114191 0.169922,0.169922 0.04676,0.04752 0.0941,0.09408 0.142578,0.140625 0.04896,0.0499 0.09759,0.09961 0.148438,0.148437 0.04655,0.04747 0.09236,0.09607 0.140624,0.142579 0.04814,0.04922 0.09651,0.0983 0.146485,0.146484 0.05513,0.05645 0.110428,0.112881 0.167969,0.167969 0.04323,0.04393 0.08616,0.08776 0.130859,0.130859 0.05736,0.05873 0.115812,0.116569 0.175781,0.173828 0.04158,0.04212 0.08207,0.08559 0.125,0.126953 0.04813,0.04922 0.09652,0.0983 0.146485,0.146485 0.05513,0.05645 0.110424,0.112881 0.167968,0.167968 0.04315,0.04385 0.08624,0.08783 0.13086,0.13086 0.05513,0.05645 0.110427,0.112882 0.167969,0.167968 0.04676,0.04752 0.0941,0.09408 0.142578,0.140626 0.04896,0.0499 0.09759,0.0996 0.148437,0.148437 0.04655,0.04746 0.09236,0.09608 0.140625,0.142578 0.04813,0.04923 0.09652,0.09829 0.146484,0.146485 0.05513,0.05644 0.110425,0.112884 0.167969,0.167968 0.04323,0.04393 0.08616,0.08776 0.13086,0.13086 0.05736,0.05873 0.115808,0.116569 0.175781,0.173828 0.04157,0.04213 0.08207,0.08559 0.125,0.126953 0.04814,0.04923 0.09651,0.09829 0.146484,0.146484 0.05513,0.05645 0.110429,0.112884 0.167969,0.167969 0.04315,0.04386 0.08624,0.08783 0.130859,0.130859 0.05513,0.05645 0.110429,0.112885 0.167969,0.167969 0.04676,0.04752 0.0941,0.09408 0.142578,0.140625 0.04896,0.0499 0.09758,0.09961 0.148438,0.148438 0.04655,0.04747 0.09236,0.09608 0.140625,0.142578 0.04814,0.04923 0.09651,0.09829 0.146484,0.146484 0.05513,0.05645 0.110429,0.112884 0.167969,0.167969 0.04383,0.04454 0.08747,0.08912 0.132812,0.132812 0.05451,0.05577 0.109147,0.111575 0.166016,0.166016 0.04676,0.04752 0.0941,0.09408 0.142578,0.140625 0.04547,0.04634 0.08962,0.09325 0.136719,0.138672 0.05513,0.05645 0.110428,0.112881 0.167969,0.167969 0.04315,0.04385 0.08624,0.08783 0.130859,0.130859 0.05513,0.05645 0.110428,0.112884 0.167969,0.167969 0.04323,0.04393 0.08616,0.08775 0.130859,0.130859 0.05736,0.05873 0.115812,0.116573 0.175781,0.173828 0.04158,0.04213 0.08207,0.08559 0.125,0.126953 0.04813,0.04922 0.09652,0.0983 0.146485,0.146485 0.05513,0.05645 0.110425,0.112881 0.167968,0.167969 0.04383,0.04454 0.08747,0.08912 0.132813,0.132812 0.05452,0.05577 0.109144,0.111571 0.166016,0.166016 0.04676,0.04751 0.0941,0.09408 0.142578,0.140625 0.04547,0.04634 0.08962,0.09325 0.136719,0.138671 0.05513,0.05645 0.110428,0.112882 0.167968,0.167969 0.04315,0.04385 0.08624,0.08783 0.13086,0.13086 0.05513,0.05645 0.110424,0.112881 0.167968,0.167968 0.04323,0.04393 0.08616,0.08776 0.13086,0.13086 0.05736,0.05873 0.115808,0.116569 0.175781,0.173828 0.04157,0.04212 0.08207,0.08559 0.125,0.126953 0.04814,0.04923 0.09651,0.09829 0.146484,0.146484 0.05513,0.05645 0.110429,0.112885 0.167969,0.167969 0.04316,0.04385 0.08624,0.08783 0.13086,0.130859 0.05513,0.05645 0.110428,0.112882 0.167968,0.167969 0.04676,0.04752 0.0941,0.09408 0.142578,0.140625 0.04896,0.0499 0.09759,0.0996 0.148438,0.148438 0.04655,0.04746 0.09236,0.09608 0.140625,0.142578 0.04814,0.04923 0.09651,0.09829 0.146484,0.146484 0.05513,0.05645 0.110429,0.112885 0.167969,0.167969 0.04323,0.04393 0.08616,0.08775 0.130859,0.130859 0.05513,0.05644 0.110429,0.112885 0.167969,0.167969 0.04387,0.04458 0.08743,0.08908 0.132813,0.132813 0.04813,0.04923 0.09652,0.09829 0.146484,0.146484 0.05513,0.05644 0.110425,0.112884 0.167969,0.167969 0.04315,0.04386 0.08624,0.08783 0.130859,0.130859 0.05513,0.05644 0.110428,0.112884 0.167969,0.167969 0.04676,0.04752 0.0941,0.09408 0.142578,0.140625 0.04896,0.0499 0.09759,0.0996 0.148438,0.148437 0.04655,0.04747 0.09236,0.09607 0.140624,0.142579 0.04813,0.04922 0.09652,0.0983 0.146485,0.146484 0.0064,0.0066 0.01306,0.01296 0.01953,0.01953 -0.272715,0.603124 -0.665046,1.134975 -1.183594,1.591797 -0.987429,0.880344 -2.277941,1.353701 -3.863281,1.429688 -0.0097,-0.0094 -0.03885,-0.03921 -0.05273,-0.05273 h 0.0078 c 0,0 -0.11336,-0.110487 -0.152343,-0.148437 -3.03e-4,-2.95e-4 -0.113086,-0.110216 -0.152344,-0.148438 h 0.0059 c 0,0 -0.114471,-0.111621 -0.154297,-0.15039 h 0.0059 c 0,0 -0.11338,-0.110502 -0.152344,-0.148438 -3.06e-4,-2.97e-4 -0.114272,-0.111427 -0.154297,-0.150391 h 0.0078 c 0,0 -0.113391,-0.110516 -0.152344,-0.148437 -3.03e-4,-2.95e-4 -0.113112,-0.110246 -0.152344,-0.148438 h 0.0059 c 0,0 -0.114501,-0.111646 -0.154297,-0.15039 h 0.0059 c 0,0 -0.113405,-0.110528 -0.152344,-0.148438 -3.05e-4,-2.97e-4 -0.114302,-0.111453 -0.154297,-0.15039 h 0.0078 c 0,0 -0.11342,-0.110539 -0.152344,-0.148438 -3.05e-4,-2.97e-4 -0.11424,-0.111393 -0.154297,-0.15039 h 0.0078 c 0,0 -0.113431,-0.11055 -0.152344,-0.148438 -3.02e-4,-2.94e-4 -0.113152,-0.110281 -0.152344,-0.148438 h 0.0059 c 0,0 -0.114543,-0.111688 -0.154297,-0.15039 h 0.0059 c 0,0 -0.113445,-0.110568 -0.152344,-0.148438 -3.05e-4,-2.96e-4 -0.114343,-0.111494 -0.154297,-0.15039 h 0.0078 c 0,0 -0.113456,-0.110579 -0.152344,-0.148438 -3.02e-4,-2.94e-4 -0.113182,-0.110312 -0.152344,-0.148437 h 0.0059 c 0,0 -0.114569,-0.111715 -0.154297,-0.150391 h 0.0059 c 0,0 -0.113474,-0.110594 -0.152344,-0.148437 -3.03e-4,-2.97e-4 -0.114373,-0.111517 -0.154296,-0.150391 h 0.0078 c 0,0 -0.113486,-0.110605 -0.152344,-0.148438 -3.04e-4,-2.95e-4 -0.114311,-0.11146 -0.154296,-0.15039 h 0.0078 c 0,0 -0.113497,-0.110616 -0.152344,-0.148438 -3.01e-4,-2.93e-4 -0.113222,-0.110349 -0.152344,-0.148437 h 0.0059 c 0,0 -0.11461,-0.111752 -0.154297,-0.150391 h 0.0059 c 0,0 -0.113515,-0.110634 -0.152343,-0.148437 -3.05e-4,-2.96e-4 -0.114412,-0.111558 -0.154297,-0.150391 h 0.0078 c 0,0 -0.113526,-0.110645 -0.152344,-0.148437 -3.05e-4,-2.98e-4 -0.114276,-0.111428 -0.154296,-0.150391 h 0.0078 c 0,0 -0.113537,-0.110657 -0.152344,-0.148438 -3.01e-4,-2.93e-4 -0.113263,-0.11039 -0.152343,-0.148437 h 0.0059 c 0,0 -0.114652,-0.11179 -0.154297,-0.150391 h 0.0059 c 0,0 -0.113555,-0.110671 -0.152343,-0.148437 -3.04e-4,-2.96e-4 -0.11438,-0.111525 -0.154297,-0.150391 h 0.0078 c 0,0 -0.113567,-0.110682 -0.152343,-0.148437 -3.02e-4,-2.93e-4 -0.11329,-0.110412 -0.152344,-0.148438 h 0.0059 c 0,0 -0.114682,-0.111819 -0.154297,-0.15039 h 0.0059 c 0,0 -0.113578,-0.110697 -0.152344,-0.148438 -3.04e-4,-2.96e-4 -0.114479,-0.111626 -0.154297,-0.150391 h 0.0078 c 0,0 -0.113589,-0.110712 -0.152344,-0.148437 -0.0019,-0.0019 -0.952652,-0.929914 -0.982422,-0.958984 l -0.002,-0.002 c 0,0 -0.954475,-0.929885 -0.984375,-0.958985 l -0.002,-0.002 -0.986328,0.960938 -0.986328,0.960937 h 0.300781 l -0.152344,0.148437 h 0.304687 l -0.154296,0.150391 h 0.300781 l -0.152344,0.148438 h 0.304688 l -0.154297,0.15039 h 0.287109 c 2.47e-4,0.0039 -2.51e-4,0.0078 0,0.01172 l -0.138672,0.136719 h 0.152344 c 0.0035,0.0459 0.0076,0.09117 0.01172,0.136719 l -0.01367,0.01172 h 0.01367 c 0.121674,1.328298 0.486816,2.512221 1.103515,3.546875 0.328886,0.53724 0.711782,1.019763 1.144532,1.453125 0.04143,0.04384 0.08647,0.08412 0.128906,0.126953 0.05524,0.05893 0.112876,0.114747 0.169922,0.171875 0.04521,0.04785 0.09421,0.09202 0.140625,0.138672 0.04422,0.04695 0.09135,0.09092 0.136718,0.136719 0.05533,0.05902 0.114735,0.114664 0.171876,0.171875 0.04114,0.04352 0.08482,0.08442 0.126953,0.126953 0.05524,0.05893 0.112874,0.11475 0.169921,0.171875 0.04522,0.04785 0.09421,0.09202 0.140626,0.138672 0.04422,0.04695 0.09135,0.09092 0.136718,0.136719 0.05533,0.05902 0.114736,0.114662 0.171875,0.171875 0.04114,0.04352 0.08482,0.08442 0.126953,0.126953 0.05533,0.05902 0.114736,0.114663 0.171875,0.171875 0.04114,0.04352 0.08482,0.08442 0.126953,0.126953 0.05524,0.05893 0.112875,0.11475 0.169922,0.171875 0.04521,0.04785 0.09421,0.09202 0.140625,0.138672 0.04422,0.04695 0.09135,0.09092 0.136719,0.136719 0.05533,0.05902 0.114736,0.114662 0.171875,0.171875 0.04114,0.04352 0.08482,0.08442 0.126953,0.126953 0.05524,0.05893 0.112874,0.114749 0.169922,0.171875 0.04142,0.04384 0.08648,0.08412 0.128906,0.126953 0.05082,0.05421 0.103901,0.105516 0.15625,0.158203 0.05225,0.05556 0.108247,0.108156 0.16211,0.162109 0.04143,0.04385 0.08647,0.08411 0.128906,0.126953 0.05533,0.05902 0.114738,0.114663 0.171875,0.171876 0.04114,0.04352 0.08482,0.08442 0.126953,0.126953 0.05524,0.05893 0.112877,0.114749 0.169922,0.171875 0.04522,0.04785 0.09421,0.09202 0.140625,0.138672 0.04422,0.04695 0.09135,0.09092 0.136719,0.136718 0.05533,0.05902 0.114736,0.114661 0.171875,0.171875 0.04114,0.04352 0.08482,0.08442 0.126953,0.126953 0.05524,0.05893 0.112874,0.114749 0.169922,0.171875 0.04143,0.04384 0.08647,0.08412 0.128906,0.126953 0.05524,0.05893 0.112876,0.114748 0.169922,0.171876 0.04521,0.04785 0.09421,0.09202 0.140625,0.138671 0.04422,0.04695 0.09135,0.09092 0.136719,0.136719 0.05533,0.05902 0.114736,0.114663 0.171875,0.171875 0.04114,0.04352 0.08483,0.08442 0.126953,0.126953 0.05524,0.05893 0.112874,0.114747 0.169922,0.171875 0.04522,0.04785 0.09421,0.09202 0.140625,0.138672 0.04422,0.04695 0.09135,0.09092 0.136718,0.136719 0.05533,0.05902 0.114735,0.114663 0.171875,0.171875 0.04114,0.04352 0.08482,0.08442 0.126954,0.126953 0.0503,0.05366 0.103978,0.104462 0.15625,0.15625 H 40.5 a 2,2 0 0 0 2,-2 V 24.130859 c -0.03302,-0.03282 -0.06654,-0.06495 -0.09961,-0.09766 -0.0067,-0.007 -0.01279,-0.01451 -0.01953,-0.02148 -0.03653,-0.03777 -0.0743,-0.0725 -0.111328,-0.109375 -0.01246,-0.01305 -0.02455,-0.02608 -0.03711,-0.03906 -0.0493,-0.05097 -0.100178,-0.0991 -0.150391,-0.148437 -0.03512,-0.03631 -0.07184,-0.06999 -0.107422,-0.105469 -0.01405,-0.01474 -0.02683,-0.03026 -0.04102,-0.04492 -0.04221,-0.04364 -0.08603,-0.08451 -0.128906,-0.126953 -0.0067,-0.007 -0.01276,-0.01449 -0.01953,-0.02148 -0.03693,-0.03818 -0.07584,-0.07407 -0.113281,-0.111328 -0.01246,-0.01305 -0.02455,-0.02608 -0.03711,-0.03906 -0.03912,-0.04044 -0.07945,-0.07777 -0.119141,-0.117187 -0.0099,-0.01036 -0.01931,-0.02093 -0.0293,-0.03125 -0.04285,-0.04431 -0.08732,-0.08583 -0.130859,-0.128907 -0.0067,-0.007 -0.01279,-0.01451 -0.01953,-0.02148 -0.03653,-0.03777 -0.07429,-0.0725 -0.111329,-0.109375 -0.01246,-0.01305 -0.02455,-0.02608 -0.03711,-0.03906 -0.04221,-0.04364 -0.08603,-0.08451 -0.128906,-0.126953 -0.0068,-0.007 -0.01274,-0.01446 -0.01953,-0.02148 -0.03693,-0.03818 -0.07584,-0.07406 -0.113281,-0.111328 -0.01246,-0.01305 -0.02455,-0.02608 -0.03711,-0.03906 -0.04221,-0.04364 -0.08603,-0.08451 -0.128906,-0.126953 -0.0067,-0.007 -0.01276,-0.01449 -0.01953,-0.02148 -0.04285,-0.04431 -0.08732,-0.08583 -0.130859,-0.128906 -0.0067,-0.007 -0.01279,-0.01451 -0.01953,-0.02148 -0.03653,-0.03777 -0.0743,-0.0725 -0.111328,-0.109375 -0.01246,-0.01305 -0.02455,-0.02608 -0.03711,-0.03906 -0.04285,-0.04431 -0.08732,-0.08583 -0.130859,-0.128907 -0.0067,-0.007 -0.01279,-0.01451 -0.01953,-0.02148 -0.03653,-0.03777 -0.0743,-0.0725 -0.111328,-0.109375 -0.01246,-0.01305 -0.02455,-0.02608 -0.03711,-0.03906 -0.04221,-0.04364 -0.08603,-0.08451 -0.128906,-0.126954 -0.0067,-0.007 -0.01276,-0.01449 -0.01953,-0.02148 -0.03693,-0.03818 -0.07584,-0.07406 -0.113282,-0.111328 -0.01246,-0.01305 -0.02455,-0.02608 -0.03711,-0.03906 -0.03912,-0.04045 -0.07945,-0.07777 -0.119141,-0.117187 -0.0099,-0.01036 -0.01931,-0.02093 -0.0293,-0.03125 -0.04286,-0.04431 -0.08731,-0.08583 -0.130859,-0.128906 -0.0067,-0.007 -0.01279,-0.01451 -0.01953,-0.02148 -0.03653,-0.03777 -0.0743,-0.0725 -0.111328,-0.109375 -0.01246,-0.01305 -0.02455,-0.02608 -0.03711,-0.03906 -0.04221,-0.04364 -0.08602,-0.08451 -0.128906,-0.126953 -0.0068,-0.007 -0.01274,-0.01446 -0.01953,-0.02148 -0.03693,-0.03818 -0.07584,-0.07406 -0.113281,-0.111328 -0.01246,-0.01305 -0.02455,-0.02608 -0.03711,-0.03906 -0.04221,-0.04364 -0.08603,-0.08451 -0.128906,-0.126954 -0.0067,-0.007 -0.01276,-0.01449 -0.01953,-0.02148 -0.04285,-0.04431 -0.08732,-0.08583 -0.13086,-0.128906 -0.0067,-0.007 -0.01279,-0.01451 -0.01953,-0.02148 -0.03653,-0.03777 -0.0743,-0.0725 -0.111328,-0.109376 -0.01246,-0.01305 -0.02455,-0.02608 -0.03711,-0.03906 -0.04285,-0.04431 -0.08732,-0.08583 -0.13086,-0.128906 -0.0067,-0.007 -0.01279,-0.01451 -0.01953,-0.02148 -0.03653,-0.03777 -0.0743,-0.0725 -0.111328,-0.109375 -0.01246,-0.01305 -0.02455,-0.02608 -0.03711,-0.03906 -0.04221,-0.04364 -0.08603,-0.08451 -0.128906,-0.126953 -0.0068,-0.007 -0.01274,-0.01446 -0.01953,-0.02148 -0.03693,-0.03818 -0.07584,-0.07406 -0.113281,-0.111328 -0.01246,-0.01305 -0.02455,-0.02608 -0.03711,-0.03906 -0.04221,-0.04364 -0.08602,-0.08451 -0.128906,-0.126953 -0.0067,-0.007 -0.01276,-0.01449 -0.01953,-0.02148 -0.04285,-0.04431 -0.08732,-0.08583 -0.130859,-0.128906 -0.0067,-0.007 -0.01279,-0.01451 -0.01953,-0.02148 -0.03653,-0.03777 -0.07429,-0.0725 -0.111328,-0.109375 -0.01246,-0.01305 -0.02455,-0.02608 -0.03711,-0.03906 -0.04221,-0.04364 -0.08603,-0.08451 -0.128907,-0.126953 -0.0068,-0.007 -0.01274,-0.01446 -0.01953,-0.02148 -0.03693,-0.03818 -0.07584,-0.07406 -0.113281,-0.111329 -0.01246,-0.01305 -0.02455,-0.02608 -0.03711,-0.03906 -0.04221,-0.04364 -0.08603,-0.08451 -0.128907,-0.126953 -0.0067,-0.007 -0.01276,-0.01449 -0.01953,-0.02148 -0.03757,-0.03885 -0.07713,-0.07539 -0.115234,-0.113281 -0.01178,-0.01233 -0.02328,-0.02483 -0.03516,-0.03711 -0.03912,-0.04044 -0.07945,-0.07777 -0.11914,-0.117188 -0.0099,-0.01036 -0.01931,-0.02092 -0.0293,-0.03125 -0.04285,-0.0443 -0.08732,-0.08584 -0.130859,-0.128906 -0.0067,-0.007 -0.01279,-0.01451 -0.01953,-0.02148 -0.03653,-0.03777 -0.0743,-0.0725 -0.111328,-0.109375 -0.01246,-0.01305 -0.02455,-0.02608 -0.03711,-0.03906 -0.04221,-0.04364 -0.08603,-0.08451 -0.128906,-0.126953 -0.0068,-0.007 -0.01274,-0.01446 -0.01953,-0.02148 -0.03693,-0.03818 -0.07584,-0.07407 -0.113281,-0.111328 -0.01246,-0.01305 -0.02455,-0.02608 -0.03711,-0.03906 -0.04221,-0.04364 -0.08603,-0.08451 -0.128907,-0.126953 -0.0067,-0.007 -0.01276,-0.01449 -0.01953,-0.02148 -0.04285,-0.04431 -0.08732,-0.08583 -0.130859,-0.128907 -0.0067,-0.007 -0.01279,-0.01451 -0.01953,-0.02148 -0.03653,-0.03777 -0.0743,-0.0725 -0.111329,-0.109375 -0.01246,-0.01305 -0.02455,-0.02608 -0.03711,-0.03906 -0.0493,-0.05097 -0.100178,-0.0991 -0.150391,-0.148437 -0.03512,-0.03631 -0.07184,-0.06999 -0.107421,-0.105469 -0.01405,-0.01474 -0.02683,-0.03026 -0.04102,-0.04492 -0.04221,-0.04364 -0.08603,-0.08451 -0.128906,-0.126953 -0.0067,-0.007 -0.01276,-0.01449 -0.01953,-0.02148 -0.04253,-0.04397 -0.0857,-0.08615 -0.128907,-0.128906 -0.007,-0.0073 -0.01441,-0.01417 -0.02148,-0.02148 -0.03653,-0.03777 -0.0743,-0.0725 -0.111328,-0.109375 -0.01246,-0.01305 -0.02455,-0.02608 -0.03711,-0.03906 -0.04285,-0.04431 -0.08732,-0.08583 -0.130859,-0.128907 -0.0067,-0.007 -0.01279,-0.01451 -0.01953,-0.02148 -0.03653,-0.03777 -0.0743,-0.0725 -0.111328,-0.109375 -0.01246,-0.01305 -0.02455,-0.02608 -0.03711,-0.03906 -0.04221,-0.04364 -0.08603,-0.08451 -0.128906,-0.126953 -0.0068,-0.007 -0.01274,-0.01446 -0.01953,-0.02148 -0.03693,-0.03818 -0.07584,-0.07406 -0.113282,-0.111328 -0.01246,-0.01305 -0.02455,-0.02608 -0.03711,-0.03906 -0.04221,-0.04364 -0.08603,-0.08451 -0.128906,-0.126953 -0.0067,-0.007 -0.01276,-0.01449 -0.01953,-0.02148 -0.04285,-0.04431 -0.08732,-0.08583 -0.13086,-0.128906 -0.0067,-0.007 -0.01279,-0.01451 -0.01953,-0.02149 -0.03653,-0.03777 -0.0743,-0.0725 -0.111328,-0.109375 -0.01246,-0.01305 -0.02455,-0.02608 -0.03711,-0.03906 -0.04285,-0.04431 -0.08732,-0.08583 -0.13086,-0.128906 -0.0067,-0.007 -0.01279,-0.01451 -0.01953,-0.02149 -0.03653,-0.03777 -0.0743,-0.07251 -0.111328,-0.109375 -0.01246,-0.01305 -0.02455,-0.02608 -0.03711,-0.03906 -0.04221,-0.04364 -0.08603,-0.08451 -0.128906,-0.126953 -0.0068,-0.007 -0.01274,-0.01446 -0.01953,-0.02149 -0.03693,-0.03818 -0.07584,-0.07406 -0.113281,-0.111328 -0.01246,-0.01305 -0.02455,-0.02608 -0.03711,-0.03906 -0.03912,-0.04045 -0.07945,-0.07777 -0.11914,-0.117188 -0.0099,-0.01036 -0.01931,-0.02093 -0.0293,-0.03125 -0.04285,-0.04431 -0.08732,-0.08583 -0.13086,-0.128906 -0.0067,-0.007 -0.01279,-0.01451 -0.01953,-0.02149 -0.03653,-0.03777 -0.0743,-0.0725 -0.111328,-0.109374 -0.01246,-0.01305 -0.02455,-0.02608 -0.03711,-0.03906 -0.04221,-0.04364 -0.08603,-0.08451 -0.128907,-0.126953 -0.0068,-0.007 -0.01274,-0.01446 -0.01953,-0.02148 -0.03693,-0.03818 -0.07584,-0.07407 -0.113281,-0.111329 -0.01246,-0.01305 -0.02455,-0.02608 -0.03711,-0.03906 -0.04221,-0.04364 -0.08603,-0.08451 -0.128907,-0.126953 -0.0067,-0.007 -0.01276,-0.01449 -0.01953,-0.02149 -0.04285,-0.0443 -0.08732,-0.08584 -0.130859,-0.128906 -0.0067,-0.007 -0.01279,-0.01451 -0.01953,-0.02148 -0.03653,-0.03777 -0.0743,-0.0725 -0.111328,-0.109375 -0.01246,-0.01305 -0.02455,-0.02608 -0.03711,-0.03906 -0.04285,-0.0443 -0.08732,-0.08584 -0.13086,-0.128906 -0.0067,-0.007 -0.01279,-0.01451 -0.01953,-0.02148 -0.03653,-0.03777 -0.0743,-0.0725 -0.111328,-0.109375 -0.01246,-0.01305 -0.02455,-0.02608 -0.03711,-0.03906 -0.04221,-0.04364 -0.08603,-0.08451 -0.128906,-0.126953 -0.0068,-0.007 -0.01274,-0.01446 -0.01953,-0.02148 -0.03693,-0.03818 -0.07584,-0.07407 -0.113281,-0.111328 -0.01246,-0.01305 -0.02455,-0.02608 -0.03711,-0.03906 -0.04221,-0.04364 -0.08603,-0.08451 -0.128907,-0.126953 -0.0067,-0.007 -0.01276,-0.01449 -0.01953,-0.02148 -0.04285,-0.04431 -0.08732,-0.08584 -0.130859,-0.128907 -0.0067,-0.007 -0.01279,-0.01451 -0.01953,-0.02148 -0.03653,-0.03777 -0.0743,-0.0725 -0.111329,-0.109375 -0.01246,-0.01305 -0.02455,-0.02608 -0.03711,-0.03906 -0.04221,-0.04364 -0.08603,-0.08451 -0.128906,-0.126953 -0.0068,-0.007 -0.01274,-0.01446 -0.01953,-0.02148 -0.03693,-0.03818 -0.07584,-0.07406 -0.113281,-0.111328 -0.01246,-0.01305 -0.02455,-0.02608 -0.03711,-0.03906 -0.04221,-0.04364 -0.08603,-0.08451 -0.128906,-0.126953 -0.0067,-0.007 -0.01276,-0.01449 -0.01953,-0.02148 -0.04253,-0.04397 -0.0857,-0.08615 -0.128906,-0.128906 -0.007,-0.0073 -0.01441,-0.01417 -0.02148,-0.02149 -0.03653,-0.03777 -0.0743,-0.0725 -0.111328,-0.109375 -0.01246,-0.01305 -0.02455,-0.02608 -0.03711,-0.03906 -0.04285,-0.04431 -0.08732,-0.08584 -0.130859,-0.128907 -0.0067,-0.007 -0.01279,-0.01451 -0.01953,-0.02148 -0.03653,-0.03777 -0.0743,-0.0725 -0.111328,-0.109375 -0.01246,-0.01305 -0.02455,-0.02608 -0.03711,-0.03906 -1.5363,-1.588302 -3.5161,-2.382623 -5.9375,-2.382813 z" />
    <g
       id="g15133"
       transform="matrix(0.64227027,0,0,0.64227027,-15.275186,-45.367611)">
      <polyline
         class="st0"
         points="63.8,101 61.2,93 58.5,101   "
         id="polyline15129" />
      <line
         class="st0"
         x1="59.400002"
         y1="98.300003"
         x2="62.900002"
         y2="98.300003"
         id="line15131" />
    </g>
    <g
       id="path33996" />
    <g
       id="path34177" />
    <g
       id="g17153"
       transform="matrix(0.64227027,0,0,0.64227027,8.7500022,8.5520441)">
      <path
         style="fill:none;stroke:#ffffff;stroke-width:1px;stroke-linecap:round;stroke-linejoin:miter;stroke-opacity:1"
         d="m 19.792122,31.555225 h 7.904173"
         id="path16798" />
      <path
         style="fill:none;stroke:#ffffff;stroke-width:1px;stroke-linecap:round;stroke-linejoin:miter;stroke-opacity:1"
         d="m 26.1674,31.596349 c 0,0 -0.879776,4.573392 -5.113091,6.866763"
         id="path16866" />
      <path
         style="fill:none;stroke:#ffffff;stroke-width:1px;stroke-linecap:round;stroke-linejoin:miter;stroke-opacity:1"
         d="M 26.262905,38.481686 C 25.267597,38.031795 22.0344,34.63603 21.648922,33.22501"
         id="path16901"
         sodipodi:nodetypes="cc" />
      <path
         style="fill:none;stroke:#ffffff;stroke-width:1px;stroke-linecap:round;stroke-linejoin:miter;stroke-opacity:1"
         d="M 23.663218,31.460063 V 30.433904"
         id="path16936" />
    </g>
    <path
       id="path35934"
       style="fill:#ffffff;stroke:#ffffff;stroke-width:0.386016;stroke-linecap:round;stroke-linejoin:round"
       inkscape:transform-center-y="0.32012888"
       d="m 33.292005,17.78074 h -1.97289 -1.972892 l 0.986446,0.960387 0.986446,0.960385 0.986445,-0.960385 z M 18.500601,30.202889 h -1.97289 -1.972892 l 0.986446,-0.960386 0.986446,-0.960386 0.986445,0.960386 z m 11.817758,1.023673 q 0,-2.382812 -1.367187,-3.75 -1.347656,-1.367187 -5.058594,-2.617187 -3.710937,-1.25 -5.449219,-2.792969 -2.285156,-2.011719 -2.285156,-5.3125 0,-3.261718 2.246094,-5.3125 2.246094,-2.050781 5.800781,-2.050781 3.632813,0 5.9375,2.382813 2.304688,2.382812 2.304688,6.132812 h -2.246094 q 0,-2.871094 -1.621094,-4.628906 Q 26.978516,11.5 24.205078,11.5 q -2.695312,0 -4.257812,1.464844 -1.542969,1.445312 -1.542969,3.75 0,2.148437 1.464844,3.515625 1.464843,1.367187 4.667968,2.441406 3.203125,1.054687 4.84375,2.207031 1.640625,1.132813 2.421876,2.675781 0.781249,1.542969 0.781249,3.632813 0,3.339844 -2.265625,5.390625 -2.246093,2.03125 -5.957031,2.03125 -2.5,0 -4.570312,-1.015625 -2.050782,-1.035156 -3.222657,-2.949219 -1.152343,-1.933594 -1.152343,-4.550781 h 2.226561 q 0,3.007812 1.816407,4.726562 1.816407,1.71875 4.902344,1.71875 2.695313,0 4.316406,-1.445312 1.640625,-1.445313 1.640625,-3.867188 z" />
  </g>
  <style
     type="text/css"
     id="style14976">&#10;	.st0{fill:none;stroke:#FFFFFF;stroke-linecap:round;stroke-linejoin:round;stroke-miterlimit:10;}&#10;	.st1{fill:#FFFFFF;}&#10;	.st2{fill:none;stroke:#FFFFFF;stroke-width:0.9976;stroke-linecap:round;stroke-linejoin:round;stroke-miterlimit:10;}&#10;	.st3{fill:none;stroke:#FFFFFF;stroke-width:0.9965;stroke-linecap:round;stroke-linejoin:round;stroke-miterlimit:10;}&#10;	.st4{fill:none;stroke:#FFFFFF;stroke-width:0.8662;stroke-linecap:round;stroke-linejoin:round;stroke-miterlimit:10;}&#10;</style>
  <style
     type="text/css"
     id="style44917">&#10;	.st0{fill:none;stroke:#FFFFFF;stroke-linecap:round;stroke-linejoin:round;stroke-miterlimit:10;}&#10;	.st1{fill:#FFFFFF;}&#10;	.st2{fill:none;stroke:#FFFFFF;stroke-width:0.9976;stroke-linecap:round;stroke-linejoin:round;stroke-miterlimit:10;}&#10;	.st3{fill:none;stroke:#FFFFFF;stroke-width:0.9965;stroke-linecap:round;stroke-linejoin:round;stroke-miterlimit:10;}&#10;	.st4{fill:none;stroke:#FFFFFF;stroke-width:0.8662;stroke-linecap:round;stroke-linejoin:round;stroke-miterlimit:10;}&#10;</style>
</svg>
