<?xml version="1.0" encoding="UTF-8" standalone="no"?>
<!-- Created with Inkscape (http://www.inkscape.org/) -->

<svg
   xmlns:dc="http://purl.org/dc/elements/1.1/"
   xmlns:cc="http://creativecommons.org/ns#"
   xmlns:rdf="http://www.w3.org/1999/02/22-rdf-syntax-ns#"
   xmlns:svg="http://www.w3.org/2000/svg"
   xmlns="http://www.w3.org/2000/svg"
   xmlns:sodipodi="http://sodipodi.sourceforge.net/DTD/sodipodi-0.dtd"
   xmlns:inkscape="http://www.inkscape.org/namespaces/inkscape"
   width="883.50208"
   height="199.20906"
   viewBox="0 0 233.75992 52.707399"
   version="1.1"
   id="svg27"
   inkscape:version="0.92.4 (5da689c313, 2019-01-14)"
   sodipodi:docname="banner.svg"
   style="enable-background:new">
  <defs
     id="defs21" />
  <sodipodi:namedview
     id="base"
     pagecolor="#e43e3e"
     bordercolor="#666666"
     borderopacity="1.0"
     inkscape:pageopacity="0"
     inkscape:pageshadow="2"
     inkscape:zoom="1"
     inkscape:cx="441.64752"
     inkscape:cy="133.4745"
     inkscape:document-units="px"
     inkscape:current-layer="layer1"
     showgrid="false"
     units="px"
     inkscape:window-width="1440"
     inkscape:window-height="877"
     inkscape:window-x="0"
     inkscape:window-y="0"
     inkscape:window-maximized="1"
     showborder="true" />
  <metadata
     id="metadata24">
    <rdf:RDF>
      <cc:Work
         rdf:about="">
        <dc:format>image/svg+xml</dc:format>
        <dc:type
           rdf:resource="http://purl.org/dc/dcmitype/StillImage" />
        <dc:title></dc:title>
      </cc:Work>
    </rdf:RDF>
  </metadata>
  <g
     inkscape:label="Layer 1"
     inkscape:groupmode="layer"
     id="layer1"
     transform="translate(124.34152,-88.100268)">
    <path
       id="rect1278"
       transform="scale(0.26458333)"
       style="opacity:1;fill:#ffffff;fill-opacity:1;fill-rule:nonzero;stroke:none;stroke-width:9.76546097;stroke-linecap:butt;stroke-linejoin:miter;stroke-miterlimit:4;stroke-dasharray:none;stroke-dashoffset:0;stroke-opacity:1;paint-order:fill markers stroke"
       d="m -311.41992,339.37695 c -9.67966,0 -17.09085,9.51106 -15.21289,19.52149 0.83893,4.47187 5.82719,10.20333 9.91211,11.38672 5.01002,1.45137 7.72119,1.23558 12.29492,-0.97852 8.19847,-3.96881 11.2416,-14.522 6.43164,-22.30469 -2.35379,-3.80851 -9.07443,-7.625 -13.42578,-7.625 z m 196.49023,0.2168 c -2.1288,-0.0551 -4.36813,0.36142 -6.70508,1.25391 -12.49358,4.77134 -13.15514,23.11816 -1.0332,28.625 h 0.002 c 2.25232,1.02265 5.23718,1.87072 6.63282,1.88281 3.61653,0.0313 10.98165,-3.98272 13.40234,-7.30274 2.885152,-3.95669 2.88442,-13.42504 -0.002,-17.29101 -3.46605,-4.6424 -7.61351,-7.0467 -12.29688,-7.16797 z m -126.85742,3.05078 c -1.49587,-0.0462 -7.20345,0.50913 -13.80078,1.36133 -11.9562,1.54442 -13.81806,2.03258 -14.56641,3.82031 -0.47192,1.12738 -5.38135,23.42577 -10.91015,49.55078 -2.12466,10.03954 -4.11795,19.24516 -5.91993,27.46875 h 28.5254 c 5.98301,-27.64872 6.11093,-27.85483 14.00781,-29.03906 6.21505,-0.93199 9.04693,0.60234 11.67773,6.32617 1.81871,3.95698 2.15888,6.4045 2.05078,14.74414 -0.0343,2.6462 -0.22274,5.31603 -0.53515,7.96875 h 20.09375 c 0.31524,-3.09489 0.48765,-6.25314 0.49023,-9.46875 0.0116,-14.48764 -1.98041,-21.49331 -7.84375,-27.58984 -6.63904,-6.90308 -17.09089,-8.23851 -26.58203,-3.39649 -2.29092,1.16875 -4.34095,1.95025 -4.55469,1.73633 -0.21374,-0.21373 1.65876,-9.96689 4.16016,-21.67383 2.5014,-11.70693 4.33855,-21.49543 4.08203,-21.75195 -0.0321,-0.0321 -0.1613,-0.05 -0.375,-0.0566 z m 89.00391,0.0156 c -3.32907,-0.11428 -26.049,2.95139 -27.36328,3.76367 -0.95359,0.58934 -10.98155,46.04132 -17.6504,78.42187 h 28.57618 c 1.71152,-8.37608 3.58955,-17.45369 5.70703,-27.39843 6.35729,-29.85699 11.36383,-54.48188 11.125,-54.72071 -0.0375,-0.0375 -0.1726,-0.0588 -0.39453,-0.0664 z m 108.62695,37.95703 c -6.800066,0.008 -15.369771,1.93696 -21.185547,4.88476 -6.849347,3.47173 -17.676443,15.25572 -22.439453,24.42383 -2.306598,4.43989 -4.379012,9.65356 -6.046875,14.91992 h 29.070313 c 4.146536,-13.83307 10.727027,-26.69337 17.037109,-30.54101 6.394813,-3.8993 11.247692,-1.58711 12.638672,6.01953 0.64277,3.51503 0.450299,4.18993 -1.587891,5.52539 -2.68158,1.75703 -4.75496,8.27414 -3.818359,12.00586 0.35246,1.40428 1.687212,3.37588 2.964843,4.38086 l 2.322266,1.82617 -0.169922,0.7832 h 16.267578 l 0.304688,-1.98632 6.613281,-1.6211 c 3.6376298,-0.89117 6.7425283,-1.50835 6.8984376,-1.37305 0.1158921,0.10064 -0.3520284,2.15547 -1.109375,4.98047 H 22.529297 c 4.265709,-14.43796 11.629456,-26.46718 18.525391,-30.0332 6.256399,-3.23531 13.873046,-0.27916 13.873046,5.38477 0,2.05906 -2.262721,13.13851 -4.832031,24.64843 h 28.568359 c 2.130264,-10.00414 4.617359,-21.65967 5.685547,-26.71875 l 3.326172,-15.75 H 73.314453 58.953125 l -0.646484,4.04297 -0.646485,4.04297 -1.888672,-3.10351 c -2.822558,-4.64134 -7.773755,-6.2892 -17.376953,-5.78516 -14.084761,0.73927 -25.40466,7.96452 -34.9062498,22.2793 -3.57542001,5.38658 -5.7384166,6.73738 -13.5605472,8.4746 -7.73838,1.71867 -7.72346,1.72727 -8.52539,-5.20117 -2.03768,-17.60511 -8.510197,-25.10791 -22.765625,-26.39257 -0.885946,-0.0798 -1.821531,-0.11834 -2.792969,-0.11719 z m 261.49805,0.92969 c -0.63176,0.009 -1.28748,0.0262 -1.96875,0.0527 -10.6985,0.41624 -17.2533,3.10278 -25.36133,10.39258 -8.44073,7.58894 -15.43985,19.7408 -19.63867,32.85351 h 28.85742 c 3.12563,-10.83256 7.96431,-20.78658 13.20703,-26.02929 6.65574,-6.65575 15.37112,-7.26191 18.24414,-1.26758 1.09143,2.2772 0.58768,5.78968 -3.80078,26.45508 -0.0665,0.31312 -0.11808,0.53419 -0.18359,0.84179 h 28.55664 c 0.38159,-1.8262 0.65423,-3.20888 1.07617,-5.20117 4.17886,-19.73136 7.59765,-36.2017 7.59765,-36.59961 0,-0.39802 -6.39797,-0.598 -14.21875,-0.44531 l -14.21875,0.27734 -0.89453,4.5 -0.89453,4.5 -1.13672,-3.39453 c -1.73553,-5.18315 -5.74629,-7.06941 -15.22265,-6.93554 z m 120.63476,0.0371 c -7.0341,0.0337 -14.61786,2.721 -20.47461,7.86329 l -3.82617,3.35937 0.70117,-3.46484 c 0.38572,-1.90564 0.92237,-4.25235 1.19336,-5.21485 0.45282,-1.60826 -0.66795,-1.75 -13.84765,-1.75 h -14.3418 l -6.38281,30.25 c -0.97727,4.63151 -1.82621,8.60172 -2.60743,12.21875 h 29.06446 c 1.80928,-7.49232 3.23816,-13.06869 3.64648,-13.88476 4.08524,-8.16476 10.54267,-12.76039 15.65235,-11.13867 2.13778,0.67853 4.17382,4.5604 4.17382,7.95703 0,0.7719 -1.32816,7.6774 -3.23437,17.0664 h 28.88086 c 1.32795,-5.66379 2.38448,-9.88062 2.80078,-10.9707 7.03438,-18.41926 23.43197,-18.89109 21.24805,-0.61133 -0.19378,1.62193 -1.08959,6.19803 -2.23047,11.58203 h 27.11328 c 5.26375,-23.72858 4.14989,-31.10978 -3.9668,-38.23632 -10.23624,-8.98756 -29.96112,-5.03929 -39.47851,7.90234 -2.65427,3.60926 -3.15962,3.92018 -3.69727,2.27344 -1.89476,-5.80332 -2.9958,-7.69394 -6.04492,-10.3711 -3.73295,-3.27757 -8.87083,-4.8563 -14.3418,-4.83008 z m -654.98047,0.79297 c -12.4043,0 -13.98993,0.19197 -14.45312,1.75 -0.28614,0.9625 -3.53459,15.92503 -7.21875,33.25 -0.58395,2.74605 -1.05004,5.02218 -1.5586,7.46875 h 28.6211 c 0.35045,-1.67608 0.52444,-2.55935 0.91406,-4.41601 4.21882,-20.10399 7.66016,-36.8902 7.64844,-37.30274 -0.0118,-0.41246 -6.2902,-0.75 -13.95313,-0.75 z m 181.29493,0 -6.78125,32.25 c -0.74491,3.54211 -1.47607,6.90968 -2.19532,10.21875 h 28.58594 c 3.2273,-15.90309 6.87907,-33.29747 8.5293,-40.21875 l 0.53711,-2.25 h -14.33789 z m 242.77929,0 -1.16992,5.75 c -3.11066,15.27614 -5.60138,27.20674 -7.730468,36.71875 H 126.4707 l 3.72461,-17.96875 3.61719,-3.25195 c 3.77469,-3.39386 9.82535,-5.6806 12.4082,-4.68945 0.82802,0.31774 1.98014,2.45969 2.56055,4.75976 1.68558,6.67979 3.13925,8.01284 8.64453,7.92969 5.61796,-0.0849 9.20035,-2.31438 11.75195,-7.31836 3.72486,-7.30488 0.7829,-17.26326 -6.05859,-20.50976 -6.35283,-3.01463 -16.49475,-0.13269 -24.92578,7.08398 -2.24587,1.92238 -4.29193,3.49609 -4.54883,3.49609 -0.25689,0 0.0946,-2.70002 0.7832,-6 l 1.25391,-6 H 121.375 Z m -502.50781,-49.3984 c -1.10641,-0.004 -2.31234,0.003 -3.63477,0.0156 -14.38756,0.13443 -23.89288,2.23209 -35.91015,7.92578 -14.92963,7.07353 -24.8398,15.88182 -31.11914,27.66211 -2.81428,5.27969 -3.42251,7.60132 -3.7793,14.39649 -0.68629,13.06873 3.52699,18.74777 14.9082,20.0957 4.88663,0.57876 5.18224,0.49238 4.4043,-1.28906 -1.43354,-3.28275 -1.75641,-16.87634 -0.53906,-22.74024 4.66726,-22.48208 28.08658,-39.24491 52.15234,-37.33203 15.37213,1.22187 23.11044,8.74713 23.00586,22.37305 -0.10786,14.05323 -11.66438,28.77158 -24.4707,31.16406 -2.5231,0.47316 -4.74878,0.69654 -4.94531,0.5 -0.19658,-0.19657 1.73551,-10.2611 4.29296,-22.36523 2.5575,-12.10416 4.58775,-22.00782 4.51368,-22.00782 -1.07282,0 -28.90742,4.06396 -29.08203,4.2461 -0.12886,0.13441 -5.94848,27.08301 -12.96876,60.00976 l 63.82422,-19.625 4.64844,-3.67383 c 9.94832,-7.86368 14.47778,-17.52937 13.92383,-29.71484 -0.30404,-6.68802 -0.82367,-8.65082 -3.39063,-12.80273 -4.00821,-6.48305 -11.20587,-11.77301 -19.89453,-14.6211 -5.23859,-1.71717 -8.19456,-2.19142 -15.93945,-2.21679 z"
       inkscape:connector-curvature="0" />
    <path
       id="rect1276"
       transform="scale(0.26458333)"
       style="opacity:1;fill:#262626;fill-opacity:1;fill-rule:nonzero;stroke:none;stroke-width:8.18772316;stroke-linecap:butt;stroke-linejoin:miter;stroke-miterlimit:4;stroke-dasharray:none;stroke-dashoffset:0;stroke-opacity:1;paint-order:fill markers stroke"
       d="m -340.23438,424.8457 c -6.49511,31.24682 -7.00843,39.2954 -3.58398,46.77539 2.64148,5.76975 6.13086,8.92171 11.7832,10.64453 10.13921,3.09037 26.43039,-2.33526 35.21485,-11.72656 l 4.57031,-4.88476 1.75781,3.89648 c 2.19956,4.87775 7.96402,10.16184 13.04102,11.95508 5.74067,2.02764 21.60471,1.73262 28.3789,-0.52734 20.56879,-6.862 35.13198,-28.87727 37.90821,-56.13282 h -20.09375 c -2.08469,17.70127 -9.96631,34.6089 -18.48438,38.16797 -1.79551,0.75024 -3.84171,1.31192 -4.54687,1.24805 -6.34084,-0.5737 -9.78321,-3.86746 -9.78321,-9.35938 0,-2.2687 2.47915,-15.57624 5.50782,-29.57422 0.0395,-0.18253 0.0665,-0.30223 0.10547,-0.48242 h -28.5254 c -2.88714,13.17595 -5.15097,23.13553 -5.67187,24.72461 -4.14865,12.65598 -19.91324,19.32413 -24.31445,10.28516 -1.21198,-2.48913 -0.61924,-6.42552 5.35742,-35.00977 z m 142.4375,0 c -3.15276,15.30825 -5.62335,27.96573 -5.90234,31.08008 -2.11899,23.6541 15.25503,33.90969 38.45117,22.69727 3.12199,-1.50909 7.72201,-4.81867 10.22266,-7.35352 l 4.54687,-4.60937 1.79102,4.33203 c 3.10285,7.50198 10.62588,12.36379 19.15625,12.3789 9.33907,0.0171 22.86594,-6.26071 29.29297,-13.59375 l 3.593749,-4.09765 3.041015,5.08789 c 2.515212,4.20907 4.232025,5.69595 9.935547,8.59961 6.46791,3.29261 7.491957,3.50976 16.517578,3.50976 8.928238,0 10.123729,-0.24665 16.59961,-3.42187 15.824549,-7.75903 27.013086,-25.63982 30.566406,-48.85156 l 0.880859,-5.75782 h -16.267578 l -1.751953,8.125 c -2.433319,11.26908 -8.559083,23.91987 -13.933594,28.77539 -7.645156,6.90694 -16.070788,4.10179 -17.5625,-5.8457 -1.23178,-8.21409 0.531672,-19.94678 3.861329,-31.05469 h -29.070313 c -1.993392,6.29424 -3.401305,12.66601 -3.8125,17.91016 -0.809469,10.32344 -1.113664,11.26365 -5.064455,15.63672 -4.33995,4.80382 -9.82492,6.64853 -14.84375,4.99219 -3.67914,-1.21425 -4.52369,-2.58698 -4.51953,-7.33985 8.9e-4,-1.19835 2.77659,-15.46926 5.96875,-31.19922 h -28.58594 c -2.88247,13.26153 -5.38814,23.95967 -6.01757,25.47657 -3.74182,9.01742 -11.85025,14.80554 -18.89258,13.48437 -4.11657,-0.77223 -5.47657,-2.805 -5.47657,-8.1875 0,-1.42626 2.42461,-14.00209 5.85157,-30.77344 z m 191.4003956,0 c -0.2615142,0.97549 -0.5550826,2.03557 -0.875,3.14844 -1.8658102,6.49043 -2.2689921,10.3562 -2.2832031,21.88281 -0.01502,12.15829 0.2595175,14.59201 2.0859375,18.5 4.5372602,9.70848 12.2148243,14.4513 23.396484,14.45508 8.59752,0.003 14.212423,-2.06995 20.470704,-7.56055 l 3.86914,-3.39453 -0.716797,2.86719 c -0.394949,1.57667 -0.977744,4.16419 -1.294922,5.75 -0.31717,1.58585 -1.086374,2.88281 -1.708984,2.88281 -0.62261,0 -5.656607,2.21923 -11.185547,4.93164 -6.97928,3.42392 -11.309475,6.29555 -14.166016,9.39453 -6.5291696,7.08333 -8.0154577,15.82831 -4.0175776,23.65235 2.5085699,4.90934 5.4601836,7.41454 11.3085936,9.5957 6.32441,2.35873 17.337332,1.244 25.001953,-2.52929 11.160378,-5.49423 15.873935,-13.17193 20.191407,-32.89063 l 2.583984,-11.80469 4.75,-1.68554 c 2.611978,-0.92769 7.10621,-3.27343 9.988281,-5.2129 2.882071,-1.9395 5.666843,-3.79208 6.189453,-4.11523 0.87303,-0.5396 0.462675,3.05907 -0.904297,7.91406 -0.452859,1.60827 0.670506,1.75 13.884771,1.75 h 14.37695 l 7.82226,-37.75 4.09961,-19.78125 H 98.169922 c -6.128288,27.37905 -9.214398,34.37589 -15.089844,40.75 -3.82783,4.15272 -12.227959,9.30791 -14.029297,8.60938 -0.46529,-0.18044 2.038967,-13.82811 5.564453,-30.32813 1.466543,-6.86368 2.531497,-11.90555 4.048828,-19.03125 H 50.095703 c -2.913839,13.05334 -6.226724,26.67077 -7.166015,28.4961 -2.246238,4.36512 -6.588577,8.56222 -10.316407,9.9707 -4.52672,1.71031 -7.787677,0.85716 -11.185547,-2.92773 -2.957989,-3.29496 -2.748191,-21.17548 0.386719,-33.00782 0.225796,-0.85223 0.467494,-1.69405 0.714844,-2.53125 z m 176.7695344,0 c -3.15731,9.86009 -4.73372,20.26241 -4.13672,29.67969 0.93929,14.81669 6.8711,23.98989 17.66211,27.31641 12.70969,3.91797 25.05349,-0.59613 34.58008,-12.64258 1.62261,-2.05183 3.23006,-3.74894 3.57226,-3.77539 0.34221,-0.0254 0.92178,1.82266 1.28711,4.10742 1.37403,8.59272 11.35763,14.73883 21.91797,13.49219 5.43539,-0.64165 14.44136,-4.47078 19.38086,-8.23828 3.55158,-2.70894 3.80033,-2.3044 2.37305,3.84179 l -0.8711,3.75 h 14.39453 c 7.91709,0 14.39453,-0.22321 14.39453,-0.49609 0,-2.591 7.71696,-37.1151 12.52735,-57.03516 h -29.06446 c -4.79606,22.20572 -6.33687,26.93732 -9.74218,32.74805 -5.63496,9.61531 -17.56828,10.43631 -19.27735,1.32617 -0.41145,-2.19323 1.45031,-12.86124 5.88282,-34.07422 h -28.55664 c -6.33873,29.76189 -8.16327,33.92797 -16.26954,37.65039 -5.06065,2.32385 -6.271,2.31674 -10.16015,-0.0547 -4.13359,-2.5205 -4.79706,-4.76079 -4.61133,-15.56446 0.11966,-6.96058 1.45753,-14.69539 3.57422,-22.03125 z m 157.32031,0 c -1.22807,6.04883 -2.64938,12.92614 -4.26563,20.53125 -4.125,19.4098 -7.5,35.68666 -7.5,36.17188 0,0.48529 6.37568,0.75816 14.16602,0.60547 l 14.16406,-0.27735 6.72852,-31.82812 C 353,440.52496 354.98955,431.6044 356.57422,424.8457 Z m 50.69922,0 c -0.64353,3.03689 -1.34371,6.25848 -2.0918,9.53125 -6.60621,28.90122 -5.11964,41.27513 5.62695,46.82227 6.47101,3.34019 16.40342,2.67752 22.33985,-1.49024 4.13537,-2.90332 7.86318,-8.45599 9.01953,-13.43359 0.59588,-2.56505 0.53927,-2.59579 -4.13672,-2.14648 -3.72714,0.35811 -5.27584,0.0249 -7.23242,-1.5625 -2.18068,-1.76909 -2.46879,-2.74487 -2.33008,-7.85547 0.0871,-3.20901 1.74838,-12.35899 3.69336,-20.33399 0.84439,-3.46228 1.57432,-6.5998 2.22461,-9.53125 z M 34.810547,493.37695 c 1.18832,0 -1.326647,11.00117 -3.498047,15.29883 -0.88936,1.76024 -2.544241,4.21368 -3.675781,5.45117 -2.545621,2.78404 -7.718295,3.00141 -10.052735,0.42188 -2.67211,-2.95264 -2.069937,-7.63026 1.507813,-11.70508 2.80399,-3.19359 13.21983,-9.4668 15.71875,-9.4668 z m -409.595707,-97.36914 -63.82422,19.625 c -0.26515,1.24365 -0.42666,1.98304 -0.69531,3.24414 l -13.41992,63 13.96484,0.27735 c 7.68099,0.15307 14.11389,0.13025 14.29493,-0.0508 0.18115,-0.18116 3.73812,-16.50543 7.90429,-36.27735 4.16621,-19.77195 7.995,-36.96172 8.50977,-38.19922 0.8338,-2.00436 1.64112,-2.25 7.39258,-2.25 10.03237,0 15.28528,2.8638 18.34375,10 5.00951,11.68838 2.18431,35.83345 -5.34961,45.71094 -5.38454,7.05952 -14.37766,8.05745 -21.44141,2.38086 l -3.81836,-3.06836 -1.18945,3.59961 c -0.65356,1.98002 -0.98307,6.05559 -0.73438,9.05469 0.5576,6.72381 3.43847,10.006 10.42969,11.88476 6.50876,1.74913 11.78512,1.73579 18.63672,-0.0488 7.25412,-1.88946 12.16561,-5.0036 17.82031,-11.29296 10.16872,-11.31009 15.32653,-26.15188 15.36524,-44.22071 0.0224,-10.48176 -0.77429,-11.585 -2.66602,-17 -0.89024,-2.54827 -2.15343,-5.07215 -4,-7.04101 -3.2878,-3.50554 -8.2883,-6.70366 -12.05469,-7.91016 l -3.74414,-1.19922 z M -342,433.5332 c -4.78867,24.15825 -4.90348,31.34909 -1.81836,38.08789 0.5622,1.22801 1.16671,2.32975 1.81836,3.33203 z"
       inkscape:connector-curvature="0" />
  </g>
</svg>
