<svg xmlns="http://www.w3.org/2000/svg" width="883.502" height="199.209" viewBox="0 0 233.76 52.707"><g paint-order="fill markers stroke"><path d="M41.945 1.693c-2.561 0-4.522 2.517-4.025 5.165.222 1.183 1.542 2.7 2.623 3.013 1.325.384 2.042.327 3.253-.259 2.169-1.05 2.974-3.842 1.701-5.901-.623-1.008-2.4-2.018-3.552-2.018zm51.988.058c-.563-.015-1.156.095-1.774.331-3.306 1.263-3.48 6.117-.273 7.574.596.27 1.386.495 1.755.498.957.008 2.906-1.054 3.546-1.932.763-1.047.763-3.552 0-4.575-.917-1.228-2.015-1.864-3.254-1.896zm-33.564.807c-.396-.012-1.906.134-3.652.36-3.163.409-3.656.538-3.854 1.01-.125.299-1.424 6.199-2.886 13.111-.563 2.656-1.09 5.092-1.567 7.268h7.548c1.583-7.316 1.616-7.37 3.706-7.683 1.644-.247 2.393.159 3.09 1.673.48 1.047.57 1.695.542 3.901-.009.7-.059 1.407-.141 2.109h5.316c.083-.819.13-1.655.13-2.505.003-3.834-.524-5.687-2.076-7.3-1.756-1.827-4.522-2.18-7.033-.899-.606.31-1.148.516-1.205.46-.056-.057.439-2.638 1.1-5.735.663-3.098 1.149-5.687 1.08-5.755-.008-.009-.042-.013-.098-.015zm23.549.004c-.881-.03-6.892.78-7.24.996-.253.156-2.906 12.181-4.67 20.749h7.56c.453-2.216.95-4.618 1.51-7.25 1.683-7.899 3.007-14.414 2.944-14.478-.01-.01-.046-.015-.104-.017zm28.74 10.043c-1.799.002-4.066.512-5.605 1.292-1.812.919-4.677 4.037-5.937 6.462-.61 1.175-1.159 2.554-1.6 3.948h7.692c1.097-3.66 2.838-7.063 4.507-8.08 1.692-1.033 2.976-.42 3.344 1.592.17.93.12 1.108-.42 1.462-.71.465-1.258 2.189-1.01 3.176.093.372.446.894.784 1.16l.615.483-.045.207h4.304l.08-.526 1.75-.429c.963-.235 1.784-.399 1.826-.363.03.027-.094.57-.294 1.318h7.653c1.129-3.82 3.077-7.003 4.902-7.946 1.655-.856 3.67-.074 3.67 1.424 0 .545-.598 3.476-1.278 6.522h7.559c.563-2.647 1.221-5.731 1.504-7.07l.88-4.167h-7.6l-.17 1.07-.172 1.07-.5-.821c-.746-1.228-2.056-1.664-4.597-1.531-3.727.196-6.722 2.107-9.236 5.895-.946 1.425-1.518 1.782-3.587 2.242-2.048.455-2.044.457-2.256-1.376-.54-4.658-2.252-6.643-6.024-6.983a8.16 8.16 0 00-.738-.031zm69.189.246c-.168.002-.341.007-.521.014-2.831.11-4.565.82-6.71 2.75-2.234 2.007-4.086 5.222-5.197 8.692h7.636c.827-2.866 2.107-5.5 3.494-6.887 1.76-1.761 4.067-1.921 4.827-.335.289.602.156 1.531-1.006 7l-.048.222h7.555c.101-.483.174-.85.285-1.376 1.106-5.22 2.01-9.579 2.01-9.684 0-.105-1.692-.158-3.762-.118l-3.762.074-.236 1.19-.237 1.19-.3-.897c-.46-1.372-1.521-1.87-4.028-1.835zm31.917.01c-1.86.008-3.867.72-5.417 2.08l-1.012.889.185-.917c.102-.504.244-1.125.316-1.38.12-.425-.177-.463-3.664-.463h-3.794l-1.69 8.004a686.184 686.184 0 01-.689 3.233h7.69c.479-1.983.857-3.458.965-3.674 1.08-2.16 2.79-3.376 4.141-2.947.566.18 1.104 1.207 1.104 2.105 0 .205-.35 2.032-.855 4.516h7.641c.351-1.499.631-2.614.741-2.903 1.861-4.873 6.2-4.998 5.622-.162-.051.43-.288 1.64-.59 3.065h7.174c1.392-6.278 1.098-8.231-1.05-10.117-2.708-2.378-7.927-1.333-10.445 2.09-.703.956-.836 1.038-.979.602-.5-1.535-.792-2.035-1.599-2.744-.988-.867-2.347-1.284-3.795-1.278zm-173.296.21c-3.282 0-3.702.05-3.824.462-.076.255-.936 4.214-1.91 8.798-.155.726-.278 1.328-.413 1.976h7.573c.093-.444.139-.677.242-1.169 1.116-5.319 2.026-9.76 2.023-9.87-.003-.108-1.664-.198-3.691-.198zm47.967 0l-1.794 8.532c-.197.937-.39 1.828-.58 2.704h7.562c.854-4.208 1.82-8.81 2.257-10.641l.142-.596H92.23zm64.236 0l-.31 1.52c-.823 4.042-1.482 7.2-2.045 9.716h7.488l.985-4.754.957-.86c.999-.899 2.6-1.504 3.283-1.242.22.084.524.651.678 1.26.446 1.767.83 2.12 2.287 2.098 1.486-.023 2.434-.613 3.11-1.936.985-1.933.206-4.568-1.604-5.427-1.68-.798-4.364-.035-6.595 1.874-.594.509-1.135.925-1.203.925-.068 0 .025-.714.207-1.587l.332-1.588h-3.786zM19.715 0a74.2 74.2 0 00-.961.003c-3.807.036-6.322.591-9.502 2.097-3.95 1.872-6.572 4.203-8.233 7.32-.745 1.396-.906 2.01-1 3.808-.182 3.458.933 4.96 3.944 5.317 1.293.154 1.371.13 1.166-.34-.38-.87-.465-4.466-.143-6.017C6.221 6.24 12.417 1.805 18.785 2.31c4.067.324 6.114 2.315 6.087 5.92-.029 3.718-3.087 7.612-6.475 8.245-.667.125-1.256.185-1.308.133-.052-.052.459-2.715 1.135-5.918.677-3.202 1.214-5.823 1.195-5.823-.284 0-7.649 1.075-7.695 1.124-.034.035-1.574 7.165-3.431 15.877l16.887-5.192 1.23-.972c2.632-2.08 3.83-4.638 3.684-7.862-.08-1.77-.218-2.29-.898-3.388-1.06-1.715-2.964-3.115-5.263-3.868C22.547.132 21.765.007 19.715 0z" fill="#fff"/><path d="M34.321 24.307c-1.718 8.267-1.854 10.397-.948 12.376.699 1.526 1.622 2.36 3.118 2.816 2.682.818 6.993-.618 9.317-3.102l1.209-1.293.465 1.031c.582 1.29 2.107 2.689 3.45 3.163 1.52.537 5.717.459 7.51-.14 5.441-1.815 9.294-7.64 10.029-14.851h-5.316c-.552 4.683-2.637 9.157-4.891 10.098-.475.199-1.017.348-1.203.33-1.678-.151-2.589-1.023-2.589-2.476 0-.6.656-4.12 1.458-7.825l.028-.127H48.41c-.764 3.486-1.363 6.121-1.5 6.542-1.098 3.348-5.27 5.112-6.434 2.72-.32-.658-.163-1.7 1.418-9.262zm37.687 0c-.834 4.05-1.488 7.4-1.562 8.223-.56 6.259 4.036 8.972 10.174 6.005.826-.399 2.043-1.275 2.704-1.945l1.203-1.22.474 1.146c.821 1.985 2.812 3.272 5.069 3.276 2.47.004 6.05-1.657 7.75-3.597l.951-1.084.805 1.346c.665 1.114 1.12 1.507 2.628 2.275 1.712.871 1.983.929 4.37.929 2.363 0 2.68-.065 4.393-.905 4.187-2.053 7.147-6.784 8.087-12.926l.233-1.523h-4.304l-.464 2.15c-.643 2.981-2.264 6.328-3.686 7.613-2.023 1.828-4.252 1.085-4.647-1.547-.326-2.173.14-5.277 1.022-8.216h-7.692c-.527 1.665-.9 3.351-1.009 4.739-.214 2.731-.294 2.98-1.34 4.137-1.148 1.27-2.599 1.759-3.927 1.32-.973-.32-1.197-.684-1.196-1.941 0-.317.735-4.093 1.58-8.255H86.06c-.763 3.509-1.425 6.34-1.592 6.74-.99 2.386-3.135 3.918-4.999 3.568-1.089-.204-1.449-.742-1.449-2.166 0-.377.642-3.705 1.549-8.142zm50.641 0c-.07.258-.147.538-.231.833-.494 1.717-.6 2.74-.604 5.79-.004 3.217.068 3.86.551 4.894 1.2 2.57 3.232 3.824 6.19 3.825 2.275 0 3.761-.548 5.417-2l1.024-.898-.19.758a39.345 39.345 0 00-.343 1.521c-.084.42-.287.763-.452.763-.165 0-1.496.587-2.96 1.305-1.846.906-2.992 1.666-3.747 2.486-1.728 1.874-2.121 4.188-1.063 6.258.663 1.299 1.444 1.961 2.992 2.539 1.673.624 4.587.329 6.615-.67 2.953-1.453 4.2-3.485 5.342-8.702l.684-3.123 1.257-.446c.69-.246 1.88-.866 2.642-1.38.763-.513 1.5-1.003 1.638-1.088.23-.143.122.81-.24 2.094-.12.425.178.463 3.674.463h3.804l2.07-9.988 1.085-5.234h-7.488c-1.622 7.244-2.438 9.095-3.993 10.782-1.013 1.098-3.235 2.462-3.712 2.277-.123-.047.54-3.658 1.472-8.024.388-1.816.67-3.15 1.072-5.035h-7.559c-.77 3.454-1.647 7.056-1.896 7.54-.594 1.154-1.743 2.265-2.73 2.637-1.197.453-2.06.227-2.96-.774-.782-.872-.726-5.603.103-8.733.06-.226.124-.449.19-.67zm46.77 0c-.835 2.609-1.252 5.36-1.094 7.853.248 3.92 1.818 6.347 4.673 7.227 3.363 1.037 6.629-.158 9.15-3.345.429-.543.854-.992.944-.999.091-.007.244.482.341 1.087.364 2.273 3.005 3.9 5.8 3.57 1.437-.17 3.82-1.183 5.127-2.18.94-.717 1.005-.61.628 1.016l-.23.993h3.808c2.095 0 3.808-.06 3.808-.132 0-.685 2.042-9.82 3.315-15.09h-7.69c-1.269 5.875-1.677 7.127-2.578 8.664-1.49 2.544-4.648 2.762-5.1.351-.109-.58.384-3.403 1.556-9.015h-7.555c-1.677 7.874-2.16 8.977-4.305 9.961-1.339.615-1.659.613-2.688-.014-1.094-.667-1.27-1.26-1.22-4.118.032-1.842.386-3.888.946-5.83zm41.625 0c-.325 1.6-.701 3.42-1.129 5.432-1.091 5.136-1.984 9.442-1.984 9.57 0 .129 1.687.201 3.748.16l3.747-.073 1.78-8.42c.533-2.52 1.06-4.88 1.48-6.67zm13.414 0c-.17.803-.356 1.656-.554 2.522-1.747 7.646-1.354 10.92 1.49 12.388 1.711.884 4.34.708 5.91-.394 1.094-.768 2.08-2.238 2.386-3.555.158-.678.143-.686-1.094-.567-.986.094-1.396.006-1.914-.414-.577-.468-.653-.726-.616-2.078.023-.85.462-3.27.977-5.38.223-.916.417-1.747.589-2.522zm-90.906 18.132c.314 0-.351 2.91-.926 4.048-.235.466-.673 1.115-.972 1.442-.674.737-2.042.794-2.66.112-.707-.781-.548-2.02.399-3.097.742-.845 3.498-2.505 4.159-2.505zM25.18 16.677L8.293 21.869l-.184.859-3.55 16.668 3.694.074c2.032.04 3.734.034 3.782-.014.048-.048.99-4.367 2.092-9.598 1.102-5.231 2.115-9.78 2.251-10.107.22-.53.434-.595 1.956-.595 2.654 0 4.044.757 4.853 2.646 1.326 3.092.578 9.48-1.415 12.094-1.425 1.868-3.804 2.132-5.673.63l-1.01-.812-.315.952c-.173.524-.26 1.603-.194 2.396.147 1.78.91 2.648 2.76 3.145 1.721.462 3.117.459 4.93-.013 1.92-.5 3.219-1.324 4.715-2.988 2.69-2.993 4.055-6.92 4.066-11.7.006-2.774-.205-3.065-.706-4.498-.235-.674-.57-1.342-1.058-1.863-.87-.928-2.193-1.774-3.19-2.093l-.99-.317zm8.674 9.928c-1.267 6.392-1.297 8.295-.481 10.078.149.325.309.616.481.881z" fill="#262626"/></g></svg>