<?xml version="1.0" encoding="UTF-8" standalone="no"?>
<!-- Created with Inkscape (http://www.inkscape.org/) -->

<svg
   xmlns:dc="http://purl.org/dc/elements/1.1/"
   xmlns:cc="http://creativecommons.org/ns#"
   xmlns:rdf="http://www.w3.org/1999/02/22-rdf-syntax-ns#"
   xmlns:svg="http://www.w3.org/2000/svg"
   xmlns="http://www.w3.org/2000/svg"
   xmlns:sodipodi="http://sodipodi.sourceforge.net/DTD/sodipodi-0.dtd"
   xmlns:inkscape="http://www.inkscape.org/namespaces/inkscape"
   width="18.804682"
   height="18.804668"
   viewBox="0 0 4.9754052 4.975402"
   version="1.1"
   id="svg27"
   inkscape:version="0.92.4 (5da689c313, 2019-01-14)"
   sodipodi:docname="logo-with-borders.svg"
   inkscape:export-filename="/home/cloud/Code/bibliogram/logo-circle.png"
   inkscape:export-xdpi="2613.8101"
   inkscape:export-ydpi="2613.8101"
   style="enable-background:new">
  <defs
     id="defs21">
    <clipPath
       clipPathUnits="userSpaceOnUse"
       id="clipPath97">
      <ellipse
         ry="9.4023361"
         rx="9.4023466"
         cy="9.4023561"
         cx="9.4023533"
         id="ellipse99"
         style="opacity:1;fill:#729fcf;fill-opacity:1;fill-rule:nonzero;stroke:none;stroke-width:0.79374999;stroke-linecap:butt;stroke-linejoin:miter;stroke-miterlimit:4;stroke-dasharray:none;stroke-dashoffset:0;stroke-opacity:1;paint-order:fill markers stroke" />
    </clipPath>
    <clipPath
       clipPathUnits="userSpaceOnUse"
       id="clipPath109">
      <ellipse
         ry="2.4877014"
         rx="2.4877043"
         cy="170.85558"
         cx="27.970709"
         id="ellipse111"
         style="opacity:1;fill:#729fcf;fill-opacity:1;fill-rule:nonzero;stroke:none;stroke-width:0.79374999;stroke-linecap:butt;stroke-linejoin:miter;stroke-miterlimit:4;stroke-dasharray:none;stroke-dashoffset:0;stroke-opacity:1;paint-order:fill markers stroke" />
    </clipPath>
    <clipPath
       clipPathUnits="userSpaceOnUse"
       id="clipPath73">
      <path
         transform="matrix(3.7795276,0,0,3.7795276,-116.99011,-636.35101)"
         style="display:inline;fill:#000000;fill-opacity:1;stroke-width:0.00233692;enable-background:new"
         d="m 28.290578,172.86551 c -0.15226,-0.0117 -0.277033,-0.0604 -0.355188,-0.13879 -0.04076,-0.0409 -0.05257,-0.0601 -0.06966,-0.11352 -0.01832,-0.0573 -0.02004,-0.0756 -0.01571,-0.16781 0.0039,-0.0826 0.01047,-0.12102 0.03253,-0.18994 l 0.02768,-0.0865 0.06222,0.0568 c 0.03422,0.0312 0.08211,0.0677 0.106459,0.0808 0.170798,0.093 0.382785,0.0492 0.499241,-0.1032 0.15214,-0.19903 0.242237,-0.61598 0.20509,-0.94912 -0.03317,-0.29751 -0.14763,-0.45395 -0.367979,-0.50298 -0.05464,-0.0122 -0.09522,-0.014 -0.212758,-0.0103 -0.08845,0.003 -0.147523,0.009 -0.151077,0.0142 -0.0032,0.005 -0.102848,0.46266 -0.221416,1.0166 l -0.215576,1.00715 h -0.382459 c -0.210353,0 -0.38246,-0.002 -0.38246,-0.005 0,-0.0173 0.717908,-3.35751 0.72266,-3.36236 0.0033,-0.003 0.170963,-0.0283 0.372564,-0.0552 0.2016,-0.0271 0.375489,-0.051 0.386418,-0.0536 0.01536,-0.003 0.01988,-4.8e-4 0.01988,0.0127 0,0.01 -0.05365,0.26922 -0.119238,0.5772 -0.06558,0.30798 -0.119238,0.56463 -0.119238,0.5703 0,0.0187 0.107356,0.012 0.191117,-0.0122 0.109419,-0.0314 0.199759,-0.0878 0.303516,-0.18951 0.186849,-0.18313 0.28535,-0.4034 0.286353,-0.64036 5.15e-4,-0.12335 -0.01684,-0.19259 -0.07191,-0.28679 -0.119399,-0.20426 -0.337908,-0.29407 -0.681575,-0.28015 -0.641042,0.026 -1.150206,0.45031 -1.241846,1.03495 -0.03194,0.20377 -0.02412,0.4187 0.01897,0.52122 0.03995,0.0951 0.04323,0.0898 -0.05154,0.0828 -0.261265,-0.0193 -0.405879,-0.11406 -0.463482,-0.30356 -0.02453,-0.0807 -0.02249,-0.29089 0.0039,-0.39596 0.0526,-0.20981 0.146473,-0.36892 0.32847,-0.5567 0.155352,-0.16028 0.319573,-0.27997 0.52574,-0.38317 0.339641,-0.17001 0.67178,-0.24934 1.044785,-0.24951 0.176394,-1e-4 0.284693,0.0113 0.412112,0.0437 0.182068,0.0461 0.327138,0.11629 0.449749,0.21742 0.133901,0.11045 0.233596,0.28708 0.26136,0.46306 0.05199,0.32948 -0.128226,0.70255 -0.439797,0.91048 -0.03725,0.0248 -0.06898,0.0464 -0.07053,0.0479 -0.0016,9.3e-4 0.01782,0.007 0.04304,0.0125 0.127068,0.0272 0.265005,0.1056 0.350202,0.19893 0.250678,0.2746 0.288771,0.73194 0.108223,1.29928 -0.09116,0.28645 -0.281261,0.55823 -0.498646,0.7129 -0.1631,0.11604 -0.394529,0.17289 -0.630132,0.15477 z"
         id="path75"
         inkscape:connector-curvature="0"
         clip-path="url(#clipPath109)" />
    </clipPath>
    <clipPath
       clipPathUnits="userSpaceOnUse"
       id="clipPath77">
      <path
         clip-path="url(#clipPath109)"
         inkscape:connector-curvature="0"
         id="path79"
         d="m 28.290578,172.86551 c -0.15226,-0.0117 -0.277033,-0.0604 -0.355188,-0.13879 -0.04076,-0.0409 -0.05257,-0.0601 -0.06966,-0.11352 -0.01832,-0.0573 -0.02004,-0.0756 -0.01571,-0.16781 0.0039,-0.0826 0.01047,-0.12102 0.03253,-0.18994 l 0.02768,-0.0865 0.06222,0.0568 c 0.03422,0.0312 0.08211,0.0677 0.106459,0.0808 0.170798,0.093 0.382785,0.0492 0.499241,-0.1032 0.15214,-0.19903 0.242237,-0.61598 0.20509,-0.94912 -0.03317,-0.29751 -0.14763,-0.45395 -0.367979,-0.50298 -0.05464,-0.0122 -0.09522,-0.014 -0.212758,-0.0103 -0.08845,0.003 -0.147523,0.009 -0.151077,0.0142 -0.0032,0.005 -0.102848,0.46266 -0.221416,1.0166 l -0.215576,1.00715 h -0.382459 c -0.210353,0 -0.38246,-0.002 -0.38246,-0.005 0,-0.0173 0.717908,-3.35751 0.72266,-3.36236 0.0033,-0.003 0.170963,-0.0283 0.372564,-0.0552 0.2016,-0.0271 0.375489,-0.051 0.386418,-0.0536 0.01536,-0.003 0.01988,-4.8e-4 0.01988,0.0127 0,0.01 -0.05365,0.26922 -0.119238,0.5772 -0.06558,0.30798 -0.119238,0.56463 -0.119238,0.5703 0,0.0187 0.107356,0.012 0.191117,-0.0122 0.109419,-0.0314 0.199759,-0.0878 0.303516,-0.18951 0.186849,-0.18313 0.28535,-0.4034 0.286353,-0.64036 5.15e-4,-0.12335 -0.01684,-0.19259 -0.07191,-0.28679 -0.119399,-0.20426 -0.337908,-0.29407 -0.681575,-0.28015 -0.641042,0.026 -1.150206,0.45031 -1.241846,1.03495 -0.03194,0.20377 -0.02412,0.4187 0.01897,0.52122 0.03995,0.0951 0.04323,0.0898 -0.05154,0.0828 -0.261265,-0.0193 -0.405879,-0.11406 -0.463482,-0.30356 -0.02453,-0.0807 -0.02249,-0.29089 0.0039,-0.39596 0.0526,-0.20981 0.146473,-0.36892 0.32847,-0.5567 0.155352,-0.16028 0.319573,-0.27997 0.52574,-0.38317 0.339641,-0.17001 0.67178,-0.24934 1.044785,-0.24951 0.176394,-1e-4 0.284693,0.0113 0.412112,0.0437 0.182068,0.0461 0.327138,0.11629 0.449749,0.21742 0.133901,0.11045 0.233596,0.28708 0.26136,0.46306 0.05199,0.32948 -0.128226,0.70255 -0.439797,0.91048 -0.03725,0.0248 -0.06898,0.0464 -0.07053,0.0479 -0.0016,9.3e-4 0.01782,0.007 0.04304,0.0125 0.127068,0.0272 0.265005,0.1056 0.350202,0.19893 0.250678,0.2746 0.288771,0.73194 0.108223,1.29928 -0.09116,0.28645 -0.281261,0.55823 -0.498646,0.7129 -0.1631,0.11604 -0.394529,0.17289 -0.630132,0.15477 z"
         style="display:inline;fill:#000000;fill-opacity:1;stroke-width:0.00233692;enable-background:new"
         transform="matrix(3.7795276,0,0,3.7795276,-116.99011,-636.35101)" />
    </clipPath>
  </defs>
  <sodipodi:namedview
     id="base"
     pagecolor="#ffffff"
     bordercolor="#666666"
     borderopacity="1.0"
     inkscape:pageopacity="0.0"
     inkscape:pageshadow="2"
     inkscape:zoom="21.716202"
     inkscape:cx="7.9554687"
     inkscape:cy="7.5432228"
     inkscape:document-units="px"
     inkscape:current-layer="layer3"
     showgrid="false"
     units="px"
     inkscape:window-width="1440"
     inkscape:window-height="877"
     inkscape:window-x="0"
     inkscape:window-y="0"
     inkscape:window-maximized="1"
     fit-margin-top="0"
     fit-margin-left="0"
     fit-margin-right="0"
     fit-margin-bottom="0"
     showguides="false"
     inkscape:snap-global="true"
     inkscape:snap-bbox="true"
     inkscape:bbox-nodes="true"
     inkscape:snap-smooth-nodes="true"
     inkscape:snap-page="true" />
  <metadata
     id="metadata24">
    <rdf:RDF>
      <cc:Work
         rdf:about="">
        <dc:format>image/svg+xml</dc:format>
        <dc:type
           rdf:resource="http://purl.org/dc/dcmitype/StillImage" />
        <dc:title></dc:title>
      </cc:Work>
    </rdf:RDF>
  </metadata>
  <g
     inkscape:groupmode="layer"
     id="layer3"
     inkscape:label="Default"
     style="display:inline"
     transform="translate(5.4706282,-5.2988529e-6)">
    <rect
       style="opacity:1;fill:#010101;fill-opacity:1;fill-rule:nonzero;stroke:none;stroke-width:0.79374999;stroke-linecap:butt;stroke-linejoin:miter;stroke-miterlimit:4;stroke-dasharray:none;stroke-dashoffset:0;stroke-opacity:1;paint-order:fill markers stroke"
       id="rect3806"
       width="4.9754052"
       height="4.9754019"
       x="-5.4706283"
       y="5.298853e-06" />
    <circle
       style="display:inline;opacity:1;fill:#d1d1d1;fill-opacity:1;fill-rule:nonzero;stroke:none;stroke-width:0.79375005;stroke-linecap:butt;stroke-linejoin:miter;stroke-miterlimit:4;stroke-dasharray:none;stroke-dashoffset:0;stroke-opacity:1;paint-order:fill markers stroke;enable-background:new"
       id="path87"
       cx="-2.9829268"
       cy="2.4877031"
       r="2.375706" />
    <path
       style="enable-background:new;display:inline;opacity:1;fill:#2c2c2c;fill-opacity:1;fill-rule:nonzero;stroke:none;stroke-width:3;stroke-linecap:butt;stroke-linejoin:miter;stroke-miterlimit:4;stroke-dasharray:none;stroke-dashoffset:0;stroke-opacity:1;paint-order:fill markers stroke"
       d="m -11.273438,0 a 9.4023424,9.4023424 0 0 0 -9.402343,9.4023438 9.4023424,9.4023424 0 0 0 0.328125,2.4550782 L -2.3789062,6.3886719 A 9.4023424,9.4023424 0 0 0 -11.273438,0 Z"
       transform="scale(0.26458333)"
       id="rect81"
       inkscape:connector-curvature="0" />
    <path
       clip-path="url(#clipPath97)"
       transform="matrix(0.26458333,0,0,0.26458333,-5.47063,0)"
       id="path42"
       d="M 9.4023438,0 A 9.4023469,9.4023361 0 0 0 0,9.4023438 9.4023469,9.4023361 0 0 0 9.4023438,18.804688 9.4023469,9.4023361 0 0 0 18.804688,9.4023438 9.4023469,9.4023361 0 0 0 9.4023438,0 Z m 0,0.79101562 A 8.611472,8.6114667 0 0 1 18.013672,9.4023438 8.611472,8.6114667 0 0 1 9.4023438,18.013672 8.611472,8.6114667 0 0 1 0.79101562,9.4023438 8.611472,8.6114667 0 0 1 9.4023438,0.79101562 Z"
       style="enable-background:new;display:inline;opacity:1;fill:#020000;fill-opacity:1;fill-rule:nonzero;stroke:none;stroke-width:3;stroke-linecap:butt;stroke-linejoin:miter;stroke-miterlimit:4;stroke-dasharray:none;stroke-dashoffset:0;stroke-opacity:1;paint-order:fill markers stroke"
       inkscape:connector-curvature="0" />
    <path
       style="enable-background:new;display:inline;opacity:1;fill:#fefefe;fill-opacity:1;fill-rule:nonzero;stroke:none;stroke-width:3;stroke-linecap:butt;stroke-linejoin:miter;stroke-miterlimit:4;stroke-dasharray:none;stroke-dashoffset:0;stroke-opacity:1;paint-order:fill markers stroke"
       d="m -23.085938,-1.1875 v 7.359375 h 2.808594 l -2.808594,5.267578 v 1.251953 L -1.6679688,6.171875 h 0.5292969 v 7.878906 h 0.9433594 V -1.1875 Z"
       id="rect63"
       transform="scale(0.26458333)"
       clip-path="url(#clipPath73)"
       inkscape:connector-curvature="0" />
    <path
       style="enable-background:new;display:inline;opacity:1;fill:#010101;fill-opacity:1;fill-rule:nonzero;stroke:none;stroke-width:3;stroke-linecap:butt;stroke-linejoin:miter;stroke-miterlimit:4;stroke-dasharray:none;stroke-dashoffset:0;stroke-opacity:1;paint-order:fill markers stroke"
       d="m -23.509766,6.171875 v 6.0625 l 3.232422,-6.0625 z m 21.8417972,0 -21.8417972,6.648437 v 5.72461 H -1.1386719 V 6.171875 Z"
       transform="scale(0.26458333)"
       id="rect46"
       clip-path="url(#clipPath77)"
       inkscape:connector-curvature="0" />
  </g>
</svg>
