<svg xmlns="http://www.w3.org/2000/svg" width="1200" height="1200" viewBox="0 0 1200 1200"><rect width="1200" height="1200" fill="#ffffff"/><rect x="90" y="255" width="1020" height="600" rx="44" fill="#f4f6f9" stroke="#d8dee8" stroke-width="3"/><text x="150" y="330" font-family="Liberation Sans",Arial,Helvetica,sans-serif font-size="26" font-weight="700" fill="#5c6475" letter-spacing="6">WORKOUT LOG</text><text x="150" y="445" font-family="Liberation Sans",Arial,Helvetica,sans-serif font-size="104" font-weight="700" fill="#12151b" letter-spacing="-4">Coffee</text><line x1="150" y1="490" x2="1050" y2="490" stroke="#d8dee8" stroke-width="3"/><circle cx="176" cy="561" r="26" fill="none" stroke="#84cc16" stroke-width="4"/><path d="M164 560l9 10 18-20" fill="none" stroke="#84cc16" stroke-width="5" stroke-linecap="round" stroke-linejoin="round"/><text x="240" y="575" font-family="Liberation Mono","DejaVu Sans Mono",monospace font-size="46" font-weight="700" fill="#12151b">SET 1</text><text x="470" y="575" font-family="Liberation Mono","DejaVu Sans Mono",monospace font-size="46" fill="#5c6475">&#8734; kg &#215; 12</text><circle cx="176" cy="651" r="26" fill="none" stroke="#84cc16" stroke-width="4"/><path d="M164 650l9 10 18-20" fill="none" stroke="#84cc16" stroke-width="5" stroke-linecap="round" stroke-linejoin="round"/><text x="240" y="665" font-family="Liberation Mono","DejaVu Sans Mono",monospace font-size="46" font-weight="700" fill="#12151b">SET 2</text><text x="470" y="665" font-family="Liberation Mono","DejaVu Sans Mono",monospace font-size="46" fill="#5c6475">&#8734; kg &#215; 12</text><circle cx="176" cy="741" r="26" fill="none" stroke="#84cc16" stroke-width="4"/><path d="M164 740l9 10 18-20" fill="none" stroke="#84cc16" stroke-width="5" stroke-linecap="round" stroke-linejoin="round"/><text x="240" y="755" font-family="Liberation Mono","DejaVu Sans Mono",monospace font-size="46" font-weight="700" fill="#12151b">SET 3</text><text x="470" y="755" font-family="Liberation Mono","DejaVu Sans Mono",monospace font-size="46" fill="#5c6475">&#8734; kg &#215; 12</text><rect x="700" y="290" width="350" height="70" rx="35" fill="#84cc16"/><text x="875" y="337" text-anchor="middle" font-family="Liberation Sans",Arial,Helvetica,sans-serif font-size="34" font-weight="700" fill="#12151b">NEW PR</text><g transform="translate(354.7758,960) scale(0.44828) translate(-80,-169)" fill="#84cc16"><rect x="80" y="242" width="352" height="28"/><rect x="80" y="199" width="36" height="114"/><rect x="131" y="169" width="47" height="174"/><rect x="334" y="169" width="47" height="174"/><rect x="396" y="199" width="36" height="114"/></g><text x="527.7" y="1025.0" font-family="Liberation Sans",Arial,Helvetica,sans-serif font-size="72.8" font-weight="700" letter-spacing="-2.60"><tspan fill="#12151b">open</tspan><tspan fill="#84cc16">Gym</tspan></text></svg>