<svg xmlns="http://www.w3.org/2000/svg" width="18.805" height="18.805" viewBox="0 0 4.975 4.975"><defs><clipPath clipPathUnits="userSpaceOnUse" id="a"><circle cy="9.402" cx="9.402" fill="#729fcf" stroke-width=".794" paint-order="fill markers stroke" r="9.402"/></clipPath><clipPath clipPathUnits="userSpaceOnUse" id="b"><circle cy="170.856" cx="27.971" fill="#729fcf" stroke-width=".794" paint-order="fill markers stroke" r="2.488"/></clipPath></defs><circle r="2.376" cy="2.488" cx="2.487" fill="#d1d1d1" paint-order="fill markers stroke"/><path d="M2.487 0A2.488 2.488 0 000 2.488a2.488 2.488 0 00.086.65L4.841 1.69A2.488 2.488 0 002.487 0z" fill="#2c2c2c" paint-order="fill markers stroke"/><path d="M9.402 0A9.402 9.402 0 000 9.402a9.402 9.402 0 009.402 9.403 9.402 9.402 0 009.403-9.403A9.402 9.402 0 009.402 0zm0 .791a8.611 8.611 0 018.612 8.611 8.611 8.611 0 01-8.612 8.612A8.611 8.611 0 01.791 9.402 8.611 8.611 0 019.402.791z" transform="scale(.26458)" clip-path="url(#a)" fill="#020000" paint-order="fill markers stroke"/><path clip-path="url(#b)" d="M27.228 170.999s.342-1.585.344-1.587c.003-.003.171-.029.373-.056.201-.027.375-.05.386-.053.016-.003.02 0 .02.012 0 .01-.054.27-.12.578-.065.308-.118.564-.118.57 0 .019.107.012.19-.012a.69.69 0 00.304-.19.891.891 0 00.287-.64.488.488 0 00-.072-.287c-.12-.204-.338-.294-.682-.28-.641.026-1.15.45-1.242 1.035-.032.204-.024.419.02.521.04.095.042.09-.052.083-.262-.02-.406-.114-.464-.304-.024-.08-.022-.29.004-.396.053-.21.147-.369.329-.556.155-.16.32-.28.525-.383.34-.17.672-.25 1.045-.25.176 0 .285.011.412.044.182.046.327.116.45.217a.78.78 0 01.261.463c.052.33-.128.703-.44.91l-.07.049z" transform="matrix(.99999 0 0 .99999 -25.483 -168.366)" fill="#fefefe"/><path transform="matrix(.99999 0 0 .99999 -25.483 -168.366)" d="M28.29 172.866a.555.555 0 01-.355-.14.226.226 0 01-.07-.113.364.364 0 01-.015-.168c0-.065.012-.129.033-.19l.027-.086.062.057c.033.03.069.057.107.08.17.094.383.05.5-.103.151-.199.241-.616.204-.949-.033-.297-.147-.454-.368-.503a.765.765 0 00-.212-.01.598.598 0 00-.152.014 93.63 93.63 0 00-.221 1.017l-.216 1.007h-.382c-.21 0-.382-.002-.382-.005 0-.009.379-1.776.379-1.776l1.689-.511s.028.01.043.012c.134.031.255.1.35.199.25.275.289.732.108 1.3a1.442 1.442 0 01-.498.712.977.977 0 01-.63.155z" clip-path="url(#b)" fill="#010101"/></svg>