<svg xmlns="http://www.w3.org/2000/svg" width="341.115" height="344.902" viewBox="0 0 319.795 323.345"><g transform="translate(492.57 -300.738)"><path d="M-375.226 621.555c-1.35-1.927-1.595-6.626-1.595-30.638v-28.361l-9.344-5.896c-5.14-3.243-9.875-5.896-10.524-5.896-.648 0-12.095 6.3-25.437 13.999-13.342 7.7-25.36 13.999-26.706 13.999-3.719 0-1.42 3.592-34.667-54.169-4.989-8.666-9.07-16.537-9.07-17.491 0-2.82 3.428-5.173 27.657-18.99a12846.87 12846.87 0 0023.171-13.231c.068-.048.444-5.449.835-12.001l.71-11.913-21.833-12.526c-12.008-6.889-23.553-13.628-25.656-14.977-6.126-3.929-6.003-6.034 1.05-18.067 3.385-5.775 12.015-20.641 19.178-33.035 7.163-12.395 14.145-23.57 15.516-24.833 3.2-2.952 2.81-3.119 31.421 13.43 12.303 7.117 22.756 12.939 23.228 12.939.471 0 5.27-2.38 10.664-5.291l9.807-5.291v-28.91c0-26.01.18-29.132 1.793-31.12 1.781-2.195 2.04-2.208 41.74-2.17a52883 52883 0 0140.644.047c.382.006 1.42.733 2.305 1.618 1.387 1.387 1.61 5.601 1.61 30.496v28.887l9.92 6.123c5.457 3.368 10.368 5.984 10.913 5.815.545-.17 11.794-6.534 24.997-14.143 18.754-10.808 24.68-13.765 27.09-13.52 2.897.295 4.304 2.417 22.955 34.63 10.928 18.872 19.87 35.356 19.871 36.629 0 1.273-.805 3.001-1.791 3.841-.986.84-12.394 7.638-25.352 15.107l-23.56 13.58v24.372l24.502 14.146c13.475 7.78 24.877 14.739 25.336 15.463.46.724.842 2.193.85 3.264.016 1.914-33.802 61.446-38.606 67.962-1.527 2.07-3.34 3.329-4.798 3.329-1.289 0-13.128-6.223-26.309-13.828-13.18-7.606-24.446-13.829-25.034-13.829-.588 0-5.55 2.368-11.027 5.263l-9.957 5.262v29.406c0 27.187-.142 29.533-1.874 31.1-1.676 1.518-6.13 1.696-42.45 1.696h-40.579l-1.594-2.277z" fill="none"/><path d="M-294.524 365.468v-36.436h-76.175v37.548l-26.826 14.376-31.06-18.072-38.088 65.968 32.024 18.627-.964 30.418-31.354 18.219 38.087 65.967 32.318-18.774 25.863 16.043v35.499h76.175V558.24l26.826-14.375 30.417 18.687 38.088-65.968-31.38-19.243.962-30.418 29.949-18.218-38.088-65.968-30.911 18.775z" fill="#d2d2d2" stroke="#000" stroke-width="11.589" stroke-linecap="round" stroke-linejoin="round"/><ellipse cx="-332.612" cy="462.41" rx="51.344" ry="51.342" fill="#fff" stroke="#000" stroke-width="11.589" stroke-linecap="round" stroke-linejoin="round"/></g></svg>