<svg version="1" xmlns="http://www.w3.org/2000/svg" width="682.667" height="682.667" viewBox="0 0 512.000000 512.000000"><path d="M238.5.6C173.6 6 116.5 32.7 72.4 78.1 33 118.8 9.9 167.1 1.9 226c-1.9 14-1.7 48.7.5 63.5 6.1 42 20.8 79.6 44.1 113 60.4 86.5 168.1 126.8 271 101.6 91.7-22.5 164.1-94.9 186.6-186.6 5.3-21.8 7.2-37.6 7.2-61.5 0-24-1.9-39.7-7.2-61.5C488.8 132.3 451 78.7 397.3 43 364.3 21.1 330.4 8.3 290 2.5 279.5 1 247.9-.2 238.5.6zM328 47.8c41.1 9.8 66.3 30.4 76.2 62.2 2 6.5 2.3 9.5 2.2 22 0 12.8-.4 15.5-2.8 23.4-6.6 21.9-21.9 43.2-39.9 55.9-3.1 2.2-5.5 4.2-5.3 4.4.2.2 26.4-7.5 58.2-17.2 31.9-9.7 58.6-17.8 59.6-18.1 1.2-.4 2.1.9 3.7 5.8 12 36.4 13.7 84.1 4.6 122.8-8.1 34.1-23.3 65.5-45.1 93.2-12.9 16.5-38.5 39.6-56.6 51.2-58.8 37.5-133.2 47.2-198.3 25.9-36.9-12-66.4-30.2-94-57.8-27.2-27.1-44.1-54.2-56.6-90.3-2.1-6.3-3.9-12.2-3.9-13.3 0-1.4 1.8-2.3 8.2-4.3 91.2-27.6 140.4-42.8 140.8-43.4.4-.4 6.6-28.4 13.9-62.2 22.8-106.3 21.3-100.2 24.1-101.2 2.4-.7 73.7-10.8 76.8-10.8 2.1 0 1.6 3-10.9 62.3-6 28.7-11.2 53.5-11.5 55.1l-.6 2.9 7.8-.5c15-1 27.4-7 40.8-19.8 18.3-17.5 28-35.8 30.6-58.1 4.2-35.9-15.6-60.6-52.9-66-11.5-1.6-35.8-.6-48.3 2.1-53.7 11.4-93.3 50.4-102.3 100.6-2.2 12.3-3 34.2-1.6 43.2.6 4.1 2.1 9.9 3.2 13 3.3 9.1 3.5 8.7-5.7 8.4-15.5-.5-29.3-5.4-37.6-13.4-7-6.9-10.9-15.8-11.7-27-2.6-35.1 8.3-61.3 37.3-90.4 7.2-7.1 16.6-15.6 20.8-18.8 29.2-21.6 69.2-37.8 106.8-43 16-2.3 58.5-1.5 70 1.2z"/><path d="M311 231.1c-23.4 7.1-42.9 13.1-43.5 13.2-.5.2 5.4.1 13.2-.1 22-.7 33.6 2.9 43.9 13.4 20.9 21.6 21.1 85.1.5 126.2-5.3 10.6-12.5 18.3-20.9 22.4-6.3 3.1-7.2 3.3-17.7 3.3-9.9 0-11.5-.3-16.5-2.7-3.1-1.5-8.8-5.5-12.8-8.9-4-3.3-7.4-5.9-7.6-5.8-.1.2-1.3 3.8-2.5 7.9-1.7 5.5-2.5 10.8-2.8 20-.4 11-.2 13.2 1.6 18.1 3.9 10.3 14.8 18.5 30.1 22.6 5 1.4 10.1 1.8 22.5 1.7 13.9-.1 17.3-.5 26-2.7 24.2-6.4 44.1-21.5 60.7-46.1 13.6-20.3 21.6-41.1 28-72.6 2-9.9 2.3-14.4 2.3-33 0-19-.3-22.5-2.3-30.5-2.8-11.3-10.6-27.2-16.9-34.7-8.5-10.3-22.2-18.8-36-22.7l-6.9-1.9-42.4 12.9zM221.2 258.4c-22.2 6.8-40.7 12.8-41.2 13.2-1.3 1.5-39.3 180.4-38.4 181.3.3.3 17.9.6 39.1.6h38.6l8.8-41.5c11.9-55.4 34.7-160.9 35.5-163.8.4-1.5.2-2.2-.7-2.1-.8 0-19.6 5.6-41.7 12.3z"/></svg>